<svg viewBox="0 0 323 96" fill="none" xmlns="http://www.w3.org/2000/svg">
<mask id="path-1-outside-1_0_1" maskUnits="userSpaceOnUse" x="0" y="2" width="66" height="93" fill="black">
<rect fill="white" y="2" width="66" height="93"/>
<path d="M64.456 3.296V60.064C64.456 65.2267 63.6667 69.8987 62.088 74.08C60.5093 78.2613 58.184 81.824 55.112 84.768C52.0827 87.712 48.3493 89.9733 43.912 91.552C39.5173 93.1307 34.4827 93.92 28.808 93.92C23.0907 93.92 18.1413 93.1947 13.96 91.744C9.82133 90.2507 5.832 88.2027 1.992 85.6L9.992 72.672C13.0213 74.7627 15.8587 76.2347 18.504 77.088C21.1493 77.8987 24.1573 78.304 27.528 78.304C32.0933 78.304 35.8907 76.8533 38.92 73.952C41.992 71.008 43.528 66.464 43.528 60.32V18.656H16.264V3.296H64.456Z"/>
</mask>
<path d="M64.456 3.296V60.064C64.456 65.2267 63.6667 69.8987 62.088 74.08C60.5093 78.2613 58.184 81.824 55.112 84.768C52.0827 87.712 48.3493 89.9733 43.912 91.552C39.5173 93.1307 34.4827 93.92 28.808 93.92C23.0907 93.92 18.1413 93.1947 13.96 91.744C9.82133 90.2507 5.832 88.2027 1.992 85.6L9.992 72.672C13.0213 74.7627 15.8587 76.2347 18.504 77.088C21.1493 77.8987 24.1573 78.304 27.528 78.304C32.0933 78.304 35.8907 76.8533 38.92 73.952C41.992 71.008 43.528 66.464 43.528 60.32V18.656H16.264V3.296H64.456Z" fill="#3DCFB6"/>
<path d="M64.456 3.296H65.456V2.296H64.456V3.296ZM62.088 74.08L63.0235 74.4332L62.088 74.08ZM55.112 84.768L54.4201 84.046L54.4151 84.0509L55.112 84.768ZM43.912 91.552L43.5768 90.6098L43.5739 90.6109L43.912 91.552ZM13.96 91.744L13.6206 92.6847L13.6322 92.6888L13.96 91.744ZM1.992 85.6L1.14165 85.0738L0.636842 85.8895L1.43095 86.4278L1.992 85.6ZM9.992 72.672L10.56 71.849L9.69481 71.2519L9.14165 72.1458L9.992 72.672ZM18.504 77.088L18.197 78.0397L18.204 78.042L18.211 78.0441L18.504 77.088ZM38.92 73.952L39.6117 74.6742L39.6119 74.674L38.92 73.952ZM43.528 18.656H44.528V17.656H43.528V18.656ZM16.264 18.656H15.264V19.656H16.264V18.656ZM16.264 3.296V2.296H15.264V3.296H16.264ZM63.456 3.296V60.064H65.456V3.296H63.456ZM63.456 60.064C63.456 65.1244 62.6824 69.6744 61.1525 73.7268L63.0235 74.4332C64.6509 70.1229 65.456 65.3289 65.456 60.064H63.456ZM61.1525 73.7268C59.6238 77.7758 57.379 81.2104 54.4201 84.046L55.8039 85.49C58.989 82.4376 61.3949 78.7469 63.0235 74.4332L61.1525 73.7268ZM54.4151 84.0509C51.5 86.8838 47.8945 89.0738 43.5768 90.6098L44.2472 92.4941C48.8042 90.8729 52.6653 88.5402 55.8089 85.4851L54.4151 84.0509ZM43.5739 90.6109C39.3082 92.1432 34.3914 92.92 28.808 92.92V94.92C34.5739 94.92 39.7264 94.1181 44.2501 92.4931L43.5739 90.6109ZM28.808 92.92C23.1714 92.92 18.338 92.2044 14.2878 90.7992L13.6322 92.6888C17.9446 94.1849 23.0099 94.92 28.808 94.92V92.92ZM14.2994 90.8034C10.2432 89.3398 6.32789 87.3307 2.55305 84.7722L1.43095 86.4278C5.33611 89.0746 9.3995 91.1616 13.6206 92.6846L14.2994 90.8034ZM2.84235 86.1262L10.8424 73.1982L9.14165 72.1458L1.14165 85.0738L2.84235 86.1262ZM9.424 73.495C12.5093 75.6243 15.4344 77.1485 18.197 78.0397L18.811 76.1363C16.283 75.3208 13.5334 73.901 10.56 71.849L9.424 73.495ZM18.211 78.0441C20.9693 78.8894 24.0789 79.304 27.528 79.304V77.304C24.2358 77.304 21.3293 76.9079 18.797 76.1319L18.211 78.0441ZM27.528 79.304C32.3261 79.304 36.3789 77.7703 39.6117 74.6742L38.2283 73.2298C35.4024 75.9363 31.8605 77.304 27.528 77.304V79.304ZM39.6119 74.674C42.9543 71.4709 44.528 66.6144 44.528 60.32H42.528C42.528 66.3136 41.0297 70.5451 38.2281 73.23L39.6119 74.674ZM44.528 60.32V18.656H42.528V60.32H44.528ZM43.528 17.656H16.264V19.656H43.528V17.656ZM17.264 18.656V3.296H15.264V18.656H17.264ZM16.264 4.296H64.456V2.296H16.264V4.296Z" fill="#3DCFB6" mask="url(#path-1-outside-1_0_1)"/>
<mask id="path-3-outside-2_0_1" maskUnits="userSpaceOnUse" x="42" y="0" width="74" height="96" fill="black">
<rect fill="white" x="42" width="74" height="96"/>
<path d="M114.704 66.08C114.704 71.584 113.253 76.448 110.352 80.672C107.493 84.896 103.376 88.2027 98 90.592C92.624 92.9813 86.16 94.176 78.608 94.176C70.2453 94.176 63.2267 92.96 57.552 90.528C51.92 88.0533 47.248 85.0027 43.536 81.376L54.16 69.6C57.4453 72.4587 61.072 74.6773 65.04 76.256C69.008 77.792 73.36 78.56 78.096 78.56C81.04 78.56 83.6213 78.1333 85.84 77.28C88.0587 76.4267 89.7867 75.1893 91.024 73.568C92.2613 71.9467 92.88 69.984 92.88 67.68C92.88 65.504 92.3893 63.6693 91.408 62.176C90.4267 60.6827 88.7627 59.3387 86.416 58.144C84.112 56.9493 80.8907 55.7333 76.752 54.496C69.84 52.3627 64.272 50.016 60.048 47.456C55.8667 44.896 52.816 41.9307 50.896 38.56C49.0187 35.1893 48.08 31.264 48.08 26.784C48.08 21.3653 49.5733 16.736 52.56 12.896C55.5893 9.05599 59.6427 6.13333 64.72 4.128C69.7973 2.07999 75.3867 1.05599 81.488 1.05599C88.3573 1.05599 94.416 2.05866 99.664 4.064C104.912 6.02666 109.456 8.84266 113.296 12.512L103.376 23.904C100.389 21.3867 97.168 19.5307 93.712 18.336C90.256 17.0987 86.736 16.48 83.152 16.48C80.5067 16.48 78.1813 16.8213 76.176 17.504C74.1707 18.144 72.6133 19.104 71.504 20.384C70.3947 21.664 69.84 23.264 69.84 25.184C69.84 27.0613 70.3733 28.64 71.44 29.92C72.5067 31.2 74.3627 32.416 77.008 33.568C79.6533 34.6773 83.3227 35.9787 88.016 37.472C93.6053 39.1787 98.384 41.2267 102.352 43.616C106.363 45.9627 109.413 48.928 111.504 52.512C113.637 56.096 114.704 60.6187 114.704 66.08Z"/>
</mask>
<path d="M114.704 66.08C114.704 71.584 113.253 76.448 110.352 80.672C107.493 84.896 103.376 88.2027 98 90.592C92.624 92.9813 86.16 94.176 78.608 94.176C70.2453 94.176 63.2267 92.96 57.552 90.528C51.92 88.0533 47.248 85.0027 43.536 81.376L54.16 69.6C57.4453 72.4587 61.072 74.6773 65.04 76.256C69.008 77.792 73.36 78.56 78.096 78.56C81.04 78.56 83.6213 78.1333 85.84 77.28C88.0587 76.4267 89.7867 75.1893 91.024 73.568C92.2613 71.9467 92.88 69.984 92.88 67.68C92.88 65.504 92.3893 63.6693 91.408 62.176C90.4267 60.6827 88.7627 59.3387 86.416 58.144C84.112 56.9493 80.8907 55.7333 76.752 54.496C69.84 52.3627 64.272 50.016 60.048 47.456C55.8667 44.896 52.816 41.9307 50.896 38.56C49.0187 35.1893 48.08 31.264 48.08 26.784C48.08 21.3653 49.5733 16.736 52.56 12.896C55.5893 9.05599 59.6427 6.13333 64.72 4.128C69.7973 2.07999 75.3867 1.05599 81.488 1.05599C88.3573 1.05599 94.416 2.05866 99.664 4.064C104.912 6.02666 109.456 8.84266 113.296 12.512L103.376 23.904C100.389 21.3867 97.168 19.5307 93.712 18.336C90.256 17.0987 86.736 16.48 83.152 16.48C80.5067 16.48 78.1813 16.8213 76.176 17.504C74.1707 18.144 72.6133 19.104 71.504 20.384C70.3947 21.664 69.84 23.264 69.84 25.184C69.84 27.0613 70.3733 28.64 71.44 29.92C72.5067 31.2 74.3627 32.416 77.008 33.568C79.6533 34.6773 83.3227 35.9787 88.016 37.472C93.6053 39.1787 98.384 41.2267 102.352 43.616C106.363 45.9627 109.413 48.928 111.504 52.512C113.637 56.096 114.704 60.6187 114.704 66.08Z" fill="#3DCFB6"/>
<path d="M110.352 80.672L109.528 80.1058L109.524 80.1115L110.352 80.672ZM98 90.592L98.4061 91.5058L98 90.592ZM57.552 90.528L57.1497 91.4436L57.1581 91.4471L57.552 90.528ZM43.536 81.376L42.7935 80.7061L42.1498 81.4197L42.8372 82.0913L43.536 81.376ZM54.16 69.6L54.8164 68.8456L54.0754 68.2009L53.4175 68.9301L54.16 69.6ZM65.04 76.256L64.6703 77.1852L64.679 77.1886L65.04 76.256ZM85.84 77.28L86.199 78.2133L85.84 77.28ZM91.024 73.568L90.229 72.9613L91.024 73.568ZM91.408 62.176L90.5723 62.7252L91.408 62.176ZM86.416 58.144L85.9557 59.0318L85.9623 59.0352L86.416 58.144ZM76.752 54.496L76.4571 55.4516L76.4656 55.4541L76.752 54.496ZM60.048 47.456L59.5258 48.3089L59.5297 48.3112L60.048 47.456ZM50.896 38.56L50.0223 39.0466L50.0271 39.055L50.896 38.56ZM52.56 12.896L51.7749 12.2766L51.7706 12.2821L52.56 12.896ZM64.72 4.128L65.0874 5.05811L65.0941 5.0554L64.72 4.128ZM99.664 4.064L99.307 4.99815L99.3137 5.00064L99.664 4.064ZM113.296 12.512L114.05 13.1687L114.677 12.4486L113.987 11.789L113.296 12.512ZM103.376 23.904L102.732 24.6686L103.484 25.3028L104.13 24.5607L103.376 23.904ZM93.712 18.336L93.3749 19.2775L93.3853 19.2811L93.712 18.336ZM76.176 17.504L76.48 18.4567L76.4892 18.4537L76.4983 18.4506L76.176 17.504ZM71.44 29.92L70.6718 30.5602L71.44 29.92ZM77.008 33.568L76.6087 34.4849L76.6213 34.4902L77.008 33.568ZM88.016 37.472L87.7128 38.425L87.724 38.4284L88.016 37.472ZM102.352 43.616L101.836 44.4727L101.847 44.4791L102.352 43.616ZM111.504 52.512L110.64 53.0159L110.645 53.0235L111.504 52.512ZM113.704 66.08C113.704 71.3976 112.306 76.061 109.528 80.1058L111.176 81.2382C114.201 76.835 115.704 71.7704 115.704 66.08H113.704ZM109.524 80.1115C106.785 84.158 102.826 87.3529 97.5939 89.6782L98.4061 91.5058C103.926 89.0524 108.201 85.634 111.18 81.2325L109.524 80.1115ZM97.5939 89.6782C92.3765 91.997 86.0582 93.176 78.608 93.176V95.176C86.2618 95.176 92.8715 93.9657 98.4061 91.5058L97.5939 89.6782ZM78.608 93.176C70.3355 93.176 63.4604 91.9722 57.9459 89.6089L57.1581 91.4471C62.993 93.9478 70.1551 95.176 78.608 95.176V93.176ZM57.9543 89.6125C52.4124 87.1774 47.8465 84.1894 44.2348 80.6607L42.8372 82.0913C46.6495 85.816 51.4276 88.9292 57.1497 91.4435L57.9543 89.6125ZM44.2785 82.0459L54.9025 70.2699L53.4175 68.9301L42.7935 80.7061L44.2785 82.0459ZM53.5036 70.3544C56.8723 73.2856 60.5955 75.564 64.6703 77.1852L65.4097 75.3268C61.5485 73.7907 58.0184 71.6318 54.8164 68.8456L53.5036 70.3544ZM64.679 77.1886C68.7744 78.7739 73.2505 79.56 78.096 79.56V77.56C73.4695 77.56 69.2416 76.8101 65.401 75.3234L64.679 77.1886ZM78.096 79.56C81.1345 79.56 83.8421 79.1199 86.199 78.2133L85.481 76.3467C83.4006 77.1468 80.9455 77.56 78.096 77.56V79.56ZM86.199 78.2133C88.5614 77.3047 90.4518 75.9661 91.819 74.1747L90.229 72.9613C89.1215 74.4126 87.556 75.5486 85.481 76.3467L86.199 78.2133ZM91.819 74.1747C93.2063 72.3567 93.88 70.1734 93.88 67.68H91.88C91.88 69.7946 91.3163 71.5366 90.229 72.9613L91.819 74.1747ZM93.88 67.68C93.88 65.3517 93.3536 63.3157 92.2437 61.6268L90.5723 62.7252C91.4251 64.0229 91.88 65.6563 91.88 67.68H93.88ZM92.2437 61.6268C91.1322 59.9354 89.3029 58.4916 86.8697 57.2528L85.9623 59.0352C88.2224 60.1857 89.7212 61.43 90.5723 62.7252L92.2437 61.6268ZM86.8763 57.2562C84.4923 56.0201 81.2033 54.7831 77.0384 53.5379L76.4656 55.4541C80.5781 56.6836 83.7318 57.8786 85.9557 59.0318L86.8763 57.2562ZM77.0469 53.5405C70.1806 51.4212 64.696 49.1037 60.5663 46.6008L59.5297 48.3112C63.848 50.9283 69.4995 53.3041 76.4571 55.4515L77.0469 53.5405ZM60.5702 46.6031C56.4955 44.1085 53.5821 41.2553 51.7649 38.065L50.0271 39.055C52.0499 42.606 55.2378 45.6835 59.5258 48.3088L60.5702 46.6031ZM51.7696 38.0734C49.9877 34.874 49.08 31.1214 49.08 26.784H47.08C47.08 31.4066 48.0497 35.5047 50.0224 39.0466L51.7696 38.0734ZM49.08 26.784C49.08 21.561 50.5148 17.1544 53.3494 13.5099L51.7706 12.2821C48.6319 16.3176 47.08 21.1697 47.08 26.784H49.08ZM53.3451 13.5154C56.2528 9.8296 60.1547 7.00625 65.0873 5.05808L64.3527 3.19791C59.1306 5.2604 54.9259 8.28239 51.7749 12.2766L53.3451 13.5154ZM65.0941 5.0554C70.0397 3.06054 75.5002 2.05599 81.488 2.05599V0.0559921C75.2731 0.0559921 69.555 1.09945 64.3459 3.2006L65.0941 5.0554ZM81.488 2.05599C88.2617 2.05599 94.1953 3.04483 99.3071 4.99812L100.021 3.12987C94.6367 1.07249 88.453 0.0559921 81.488 0.0559921V2.05599ZM99.3137 5.00064C104.442 6.91853 108.868 9.66428 112.605 13.235L113.987 11.789C110.044 8.02105 105.382 5.1348 100.014 3.12735L99.3137 5.00064ZM112.542 11.8553L102.622 23.2473L104.13 24.5607L114.05 13.1687L112.542 11.8553ZM104.02 23.1394C100.946 20.5483 97.6185 18.6283 94.0387 17.3909L93.3853 19.2811C96.7175 20.433 99.8323 22.225 102.732 24.6686L104.02 23.1394ZM94.0491 17.3945C90.4876 16.1194 86.8537 15.48 83.152 15.48V17.48C86.6183 17.48 90.0244 18.0779 93.3749 19.2775L94.0491 17.3945ZM83.152 15.48C80.4232 15.48 77.985 15.8318 75.8537 16.5573L76.4983 18.4506C78.3777 17.8108 80.5902 17.48 83.152 17.48V15.48ZM75.872 16.5513C73.7339 17.2337 72.0041 18.2801 70.7483 19.7291L72.2597 21.0389C73.2226 19.9279 74.6075 19.0543 76.48 18.4567L75.872 16.5513ZM70.7483 19.7291C69.4603 21.2152 68.84 23.0577 68.84 25.184H70.84C70.84 23.4703 71.329 22.1128 72.2597 21.0389L70.7483 19.7291ZM68.84 25.184C68.84 27.2638 69.4364 29.0777 70.6718 30.5602L72.2082 29.2798C71.3103 28.2023 70.84 26.8589 70.84 25.184H68.84ZM70.6718 30.5602C71.8863 32.0176 73.9108 33.3099 76.6087 34.4848L77.4073 32.6512C74.8146 31.5221 73.127 30.3824 72.2082 29.2798L70.6718 30.5602ZM76.6213 34.4902C79.3065 35.6163 83.0081 36.928 87.7128 38.4249L88.3192 36.5191C83.6372 35.0294 80.0001 33.7384 77.3947 32.6458L76.6213 34.4902ZM87.724 38.4284C93.2543 40.1171 97.9539 42.135 101.836 44.4727L102.868 42.7593C98.8141 40.3184 93.9564 38.2403 88.308 36.5156L87.724 38.4284ZM101.847 44.4791C105.727 46.7495 108.646 49.5977 110.64 53.0159L112.368 52.0081C110.18 48.2583 106.998 45.1758 102.857 42.7529L101.847 44.4791ZM110.645 53.0235C112.662 56.4119 113.704 60.7444 113.704 66.08H115.704C115.704 60.493 114.613 55.7801 112.363 52.0005L110.645 53.0235Z" fill="#3DCFB6" mask="url(#path-3-outside-2_0_1)"/>
<g filter="url(#filter0_d_0_1)">
<mask id="path-5-outside-3_0_1" maskUnits="userSpaceOnUse" x="120" y="3" width="140" height="37" fill="black">
<rect fill="white" x="120" y="3" width="140" height="37"/>
<path d="M143.072 4.928V26.864C143.072 28.336 142.872 29.776 142.472 31.184C142.072 32.576 141.416 33.832 140.504 34.952C139.608 36.056 138.416 36.936 136.928 37.592C135.456 38.248 133.632 38.576 131.456 38.576C129.744 38.576 128.112 38.32 126.56 37.808C125.008 37.28 123.56 36.528 122.216 35.552L124.256 32.456C125.648 33.336 126.92 33.936 128.072 34.256C129.224 34.56 130.312 34.712 131.336 34.712C133.544 34.712 135.256 34.008 136.472 32.6C137.704 31.176 138.32 29.2 138.32 26.672V8.696H128.456V4.928H143.072ZM162.229 12.104C164.645 12.104 166.669 12.648 168.301 13.736C169.949 14.824 171.189 16.36 172.021 18.344C172.869 20.312 173.293 22.64 173.293 25.328C173.293 27.936 172.861 30.24 171.997 32.24C171.149 34.224 169.901 35.784 168.253 36.92C166.605 38.04 164.581 38.6 162.181 38.6C159.781 38.6 157.749 38.056 156.085 36.968C154.437 35.88 153.189 34.344 152.341 32.36C151.493 30.376 151.069 28.048 151.069 25.376C151.069 22.752 151.493 20.448 152.341 18.464C153.205 16.464 154.469 14.904 156.133 13.784C157.797 12.664 159.829 12.104 162.229 12.104ZM162.229 15.776C160.149 15.776 158.581 16.56 157.525 18.128C156.469 19.68 155.941 22.096 155.941 25.376C155.941 28.624 156.461 31.032 157.501 32.6C158.541 34.152 160.101 34.928 162.181 34.928C164.261 34.928 165.821 34.152 166.861 32.6C167.901 31.032 168.421 28.608 168.421 25.328C168.421 22.064 167.901 19.656 166.861 18.104C165.837 16.552 164.293 15.776 162.229 15.776ZM181.147 38V12.704H185.107L185.443 16.112C186.483 14.816 187.747 13.824 189.234 13.136C190.739 12.448 192.235 12.104 193.723 12.104C196.155 12.104 197.947 12.768 199.099 14.096C200.251 15.408 200.827 17.24 200.827 19.592V38H196.219V22.424C196.219 20.824 196.123 19.528 195.931 18.536C195.755 17.528 195.379 16.8 194.803 16.352C194.227 15.904 193.355 15.68 192.187 15.68C191.275 15.68 190.411 15.88 189.595 16.28C188.779 16.68 188.043 17.184 187.387 17.792C186.747 18.4 186.203 19.032 185.755 19.688V38H181.147ZM228.576 32.192C228.576 33.2 228.736 33.936 229.056 34.4C229.376 34.848 229.88 35.184 230.568 35.408L229.488 38.576C228.336 38.432 227.336 38.088 226.488 37.544C225.64 37 225.008 36.168 224.592 35.048C223.68 36.216 222.528 37.104 221.136 37.712C219.744 38.304 218.232 38.6 216.6 38.6C214.056 38.6 212.048 37.88 210.576 36.44C209.104 35 208.368 33.104 208.368 30.752C208.368 28.112 209.392 26.088 211.44 24.68C213.504 23.272 216.464 22.568 220.32 22.568H223.992V20.648C223.992 18.904 223.472 17.664 222.432 16.928C221.408 16.192 219.976 15.824 218.136 15.824C217.304 15.824 216.312 15.928 215.16 16.136C214.008 16.344 212.784 16.672 211.488 17.12L210.312 13.76C211.88 13.168 213.376 12.744 214.8 12.488C216.24 12.232 217.584 12.104 218.832 12.104C222.096 12.104 224.536 12.848 226.152 14.336C227.768 15.808 228.576 17.832 228.576 20.408V32.192ZM217.896 35.144C219.08 35.144 220.216 34.84 221.304 34.232C222.392 33.624 223.288 32.776 223.992 31.688V25.568H220.632C217.96 25.568 216.064 26.024 214.944 26.936C213.824 27.832 213.264 29.064 213.264 30.632C213.264 32.104 213.648 33.224 214.416 33.992C215.184 34.76 216.344 35.144 217.896 35.144ZM247.565 34.928C249.405 34.928 250.853 34.592 251.909 33.92C252.981 33.248 253.517 32.336 253.517 31.184C253.517 30.448 253.373 29.816 253.085 29.288C252.813 28.76 252.237 28.28 251.357 27.848C250.493 27.416 249.181 26.976 247.421 26.528C245.709 26.096 244.213 25.592 242.933 25.016C241.653 24.44 240.661 23.688 239.957 22.76C239.269 21.832 238.925 20.632 238.925 19.16C238.925 17.72 239.325 16.472 240.125 15.416C240.941 14.36 242.085 13.544 243.557 12.968C245.045 12.392 246.773 12.104 248.741 12.104C250.821 12.104 252.629 12.384 254.165 12.944C255.717 13.488 257.029 14.16 258.101 14.96L256.133 17.96C255.157 17.304 254.085 16.768 252.917 16.352C251.765 15.936 250.405 15.728 248.837 15.728C246.965 15.728 245.629 16.016 244.829 16.592C244.045 17.152 243.653 17.896 243.653 18.824C243.653 19.512 243.845 20.088 244.229 20.552C244.629 21 245.309 21.416 246.269 21.8C247.229 22.184 248.557 22.608 250.253 23.072C251.901 23.52 253.341 24.048 254.573 24.656C255.805 25.264 256.757 26.064 257.429 27.056C258.117 28.032 258.461 29.32 258.461 30.92C258.461 32.728 257.941 34.2 256.901 35.336C255.861 36.456 254.509 37.28 252.845 37.808C251.197 38.336 249.437 38.6 247.565 38.6C245.261 38.6 243.277 38.264 241.613 37.592C239.965 36.92 238.581 36.096 237.461 35.12L240.005 32.192C240.997 33.008 242.133 33.672 243.413 34.184C244.693 34.68 246.077 34.928 247.565 34.928Z"/>
</mask>
<path d="M143.072 4.928V26.864C143.072 28.336 142.872 29.776 142.472 31.184C142.072 32.576 141.416 33.832 140.504 34.952C139.608 36.056 138.416 36.936 136.928 37.592C135.456 38.248 133.632 38.576 131.456 38.576C129.744 38.576 128.112 38.32 126.56 37.808C125.008 37.28 123.56 36.528 122.216 35.552L124.256 32.456C125.648 33.336 126.92 33.936 128.072 34.256C129.224 34.56 130.312 34.712 131.336 34.712C133.544 34.712 135.256 34.008 136.472 32.6C137.704 31.176 138.32 29.2 138.32 26.672V8.696H128.456V4.928H143.072ZM162.229 12.104C164.645 12.104 166.669 12.648 168.301 13.736C169.949 14.824 171.189 16.36 172.021 18.344C172.869 20.312 173.293 22.64 173.293 25.328C173.293 27.936 172.861 30.24 171.997 32.24C171.149 34.224 169.901 35.784 168.253 36.92C166.605 38.04 164.581 38.6 162.181 38.6C159.781 38.6 157.749 38.056 156.085 36.968C154.437 35.88 153.189 34.344 152.341 32.36C151.493 30.376 151.069 28.048 151.069 25.376C151.069 22.752 151.493 20.448 152.341 18.464C153.205 16.464 154.469 14.904 156.133 13.784C157.797 12.664 159.829 12.104 162.229 12.104ZM162.229 15.776C160.149 15.776 158.581 16.56 157.525 18.128C156.469 19.68 155.941 22.096 155.941 25.376C155.941 28.624 156.461 31.032 157.501 32.6C158.541 34.152 160.101 34.928 162.181 34.928C164.261 34.928 165.821 34.152 166.861 32.6C167.901 31.032 168.421 28.608 168.421 25.328C168.421 22.064 167.901 19.656 166.861 18.104C165.837 16.552 164.293 15.776 162.229 15.776ZM181.147 38V12.704H185.107L185.443 16.112C186.483 14.816 187.747 13.824 189.234 13.136C190.739 12.448 192.235 12.104 193.723 12.104C196.155 12.104 197.947 12.768 199.099 14.096C200.251 15.408 200.827 17.24 200.827 19.592V38H196.219V22.424C196.219 20.824 196.123 19.528 195.931 18.536C195.755 17.528 195.379 16.8 194.803 16.352C194.227 15.904 193.355 15.68 192.187 15.68C191.275 15.68 190.411 15.88 189.595 16.28C188.779 16.68 188.043 17.184 187.387 17.792C186.747 18.4 186.203 19.032 185.755 19.688V38H181.147ZM228.576 32.192C228.576 33.2 228.736 33.936 229.056 34.4C229.376 34.848 229.88 35.184 230.568 35.408L229.488 38.576C228.336 38.432 227.336 38.088 226.488 37.544C225.64 37 225.008 36.168 224.592 35.048C223.68 36.216 222.528 37.104 221.136 37.712C219.744 38.304 218.232 38.6 216.6 38.6C214.056 38.6 212.048 37.88 210.576 36.44C209.104 35 208.368 33.104 208.368 30.752C208.368 28.112 209.392 26.088 211.44 24.68C213.504 23.272 216.464 22.568 220.32 22.568H223.992V20.648C223.992 18.904 223.472 17.664 222.432 16.928C221.408 16.192 219.976 15.824 218.136 15.824C217.304 15.824 216.312 15.928 215.16 16.136C214.008 16.344 212.784 16.672 211.488 17.12L210.312 13.76C211.88 13.168 213.376 12.744 214.8 12.488C216.24 12.232 217.584 12.104 218.832 12.104C222.096 12.104 224.536 12.848 226.152 14.336C227.768 15.808 228.576 17.832 228.576 20.408V32.192ZM217.896 35.144C219.08 35.144 220.216 34.84 221.304 34.232C222.392 33.624 223.288 32.776 223.992 31.688V25.568H220.632C217.96 25.568 216.064 26.024 214.944 26.936C213.824 27.832 213.264 29.064 213.264 30.632C213.264 32.104 213.648 33.224 214.416 33.992C215.184 34.76 216.344 35.144 217.896 35.144ZM247.565 34.928C249.405 34.928 250.853 34.592 251.909 33.92C252.981 33.248 253.517 32.336 253.517 31.184C253.517 30.448 253.373 29.816 253.085 29.288C252.813 28.76 252.237 28.28 251.357 27.848C250.493 27.416 249.181 26.976 247.421 26.528C245.709 26.096 244.213 25.592 242.933 25.016C241.653 24.44 240.661 23.688 239.957 22.76C239.269 21.832 238.925 20.632 238.925 19.16C238.925 17.72 239.325 16.472 240.125 15.416C240.941 14.36 242.085 13.544 243.557 12.968C245.045 12.392 246.773 12.104 248.741 12.104C250.821 12.104 252.629 12.384 254.165 12.944C255.717 13.488 257.029 14.16 258.101 14.96L256.133 17.96C255.157 17.304 254.085 16.768 252.917 16.352C251.765 15.936 250.405 15.728 248.837 15.728C246.965 15.728 245.629 16.016 244.829 16.592C244.045 17.152 243.653 17.896 243.653 18.824C243.653 19.512 243.845 20.088 244.229 20.552C244.629 21 245.309 21.416 246.269 21.8C247.229 22.184 248.557 22.608 250.253 23.072C251.901 23.52 253.341 24.048 254.573 24.656C255.805 25.264 256.757 26.064 257.429 27.056C258.117 28.032 258.461 29.32 258.461 30.92C258.461 32.728 257.941 34.2 256.901 35.336C255.861 36.456 254.509 37.28 252.845 37.808C251.197 38.336 249.437 38.6 247.565 38.6C245.261 38.6 243.277 38.264 241.613 37.592C239.965 36.92 238.581 36.096 237.461 35.12L240.005 32.192C240.997 33.008 242.133 33.672 243.413 34.184C244.693 34.68 246.077 34.928 247.565 34.928Z" fill="white"/>
<path d="M143.072 4.928H144.072V3.928H143.072V4.928ZM142.472 31.184L143.433 31.4602L143.434 31.4573L142.472 31.184ZM140.504 34.952L139.729 34.3206L139.728 34.3218L140.504 34.952ZM136.928 37.592L136.525 36.677L136.521 36.6786L136.928 37.592ZM126.56 37.808L126.238 38.7548L126.247 38.7577L126.56 37.808ZM122.216 35.552L121.381 35.0018L120.855 35.7997L121.628 36.3612L122.216 35.552ZM124.256 32.456L124.79 31.6107L123.961 31.0864L123.421 31.9058L124.256 32.456ZM128.072 34.256L127.804 35.2196L127.817 35.2229L128.072 34.256ZM136.472 32.6L135.716 31.9457L135.715 31.9464L136.472 32.6ZM138.32 8.696H139.32V7.696H138.32V8.696ZM128.456 8.696H127.456V9.696H128.456V8.696ZM128.456 4.928V3.928H127.456V4.928H128.456ZM142.072 4.928V26.864H144.072V4.928H142.072ZM142.072 26.864C142.072 28.2441 141.885 29.5921 141.51 30.9107L143.434 31.4573C143.859 29.9599 144.072 28.4279 144.072 26.864H142.072ZM141.511 30.9078C141.148 32.1705 140.555 33.3055 139.729 34.3206L141.279 35.5834C142.277 34.3585 142.996 32.9815 143.433 31.4602L141.511 30.9078ZM139.728 34.3218C138.945 35.286 137.888 36.0757 136.525 36.677L137.331 38.507C138.944 37.7963 140.271 36.826 141.28 35.5822L139.728 34.3218ZM136.521 36.6786C135.214 37.2612 133.538 37.576 131.456 37.576V39.576C133.726 39.576 135.698 39.2348 137.335 38.5054L136.521 36.6786ZM131.456 37.576C129.845 37.576 128.319 37.3354 126.873 36.8583L126.247 38.7577C127.905 39.3046 129.643 39.576 131.456 39.576V37.576ZM126.882 36.8613C125.426 36.366 124.068 35.6607 122.804 34.7428L121.628 36.3612C123.052 37.3953 124.59 38.194 126.238 38.7547L126.882 36.8613ZM123.051 36.1022L125.091 33.0062L123.421 31.9058L121.381 35.0018L123.051 36.1022ZM123.722 33.3013C125.168 34.2153 126.53 34.8656 127.804 35.2195L128.34 33.2925C127.31 33.0064 126.128 32.4567 124.79 31.6107L123.722 33.3013ZM127.817 35.2229C129.039 35.5454 130.213 35.712 131.336 35.712V33.712C130.411 33.712 129.409 33.5746 128.327 33.2891L127.817 35.2229ZM131.336 35.712C133.775 35.712 135.787 34.9231 137.229 33.2536L135.715 31.9464C134.725 33.0929 133.313 33.712 131.336 33.712V35.712ZM137.228 33.2543C138.664 31.5943 139.32 29.3572 139.32 26.672H137.32C137.32 29.0428 136.744 30.7577 135.716 31.9457L137.228 33.2543ZM139.32 26.672V8.696H137.32V26.672H139.32ZM138.32 7.696H128.456V9.696H138.32V7.696ZM129.456 8.696V4.928H127.456V8.696H129.456ZM128.456 5.928H143.072V3.928H128.456V5.928ZM168.301 13.736L167.747 14.5681L167.75 14.5705L168.301 13.736ZM172.021 18.344L171.099 18.7307L171.103 18.7397L172.021 18.344ZM171.997 32.24L171.079 31.8434L171.078 31.847L171.997 32.24ZM168.253 36.92L168.815 37.7471L168.821 37.7433L168.253 36.92ZM156.085 36.968L155.534 37.8025L155.538 37.805L156.085 36.968ZM152.341 32.36L151.422 32.753L152.341 32.36ZM152.341 18.464L151.423 18.0674L151.422 18.071L152.341 18.464ZM156.133 13.784L155.575 12.9544L156.133 13.784ZM157.525 18.128L158.352 18.6905L158.355 18.6866L157.525 18.128ZM157.501 32.6L156.668 33.1527L156.671 33.1567L157.501 32.6ZM166.861 32.6L167.692 33.1567L167.695 33.1527L166.861 32.6ZM166.861 18.104L166.027 18.6547L166.031 18.6607L166.861 18.104ZM162.229 13.104C164.494 13.104 166.313 13.6126 167.747 14.5681L168.856 12.9039C167.025 11.6834 164.797 11.104 162.229 11.104V13.104ZM167.75 14.5705C169.218 15.5396 170.337 16.9124 171.099 18.7307L172.943 17.9573C172.042 15.8076 170.68 14.1084 168.852 12.9015L167.75 14.5705ZM171.103 18.7397C171.885 20.5553 172.293 22.7426 172.293 25.328H174.293C174.293 22.5374 173.853 20.0687 172.94 17.9483L171.103 18.7397ZM172.293 25.328C172.293 27.826 171.88 29.9908 171.079 31.8434L172.915 32.6366C173.843 30.4892 174.293 28.046 174.293 25.328H172.293ZM171.078 31.847C170.298 33.6713 169.166 35.0763 167.686 36.0967L168.821 37.7433C170.637 36.4917 172.001 34.7767 172.917 32.633L171.078 31.847ZM167.691 36.0929C166.24 37.0789 164.422 37.6 162.181 37.6V39.6C164.74 39.6 166.97 39.0011 168.815 37.7471L167.691 36.0929ZM162.181 37.6C159.935 37.6 158.103 37.0924 156.632 36.131L155.538 37.805C157.396 39.0196 159.628 39.6 162.181 39.6V37.6ZM156.636 36.1335C155.167 35.1633 154.039 33.7883 153.261 31.967L151.422 32.753C152.339 34.8997 153.708 36.5967 155.534 37.8025L156.636 36.1335ZM153.261 31.967C152.477 30.133 152.069 27.9442 152.069 25.376H150.069C150.069 28.1518 150.51 30.619 151.422 32.753L153.261 31.967ZM152.069 25.376C152.069 22.8586 152.476 20.693 153.261 18.857L151.422 18.071C150.51 20.203 150.069 22.6454 150.069 25.376H152.069ZM153.259 18.8606C154.054 17.0206 155.2 15.6175 156.692 14.6136L155.575 12.9544C153.738 14.1905 152.356 15.9074 151.423 18.0674L153.259 18.8606ZM156.692 14.6136C158.16 13.625 159.988 13.104 162.229 13.104V11.104C159.67 11.104 157.434 11.703 155.575 12.9544L156.692 14.6136ZM162.229 14.776C159.856 14.776 157.959 15.6944 156.696 17.5694L158.355 18.6866C159.204 17.4256 160.443 16.776 162.229 16.776V14.776ZM156.698 17.5655C155.473 19.3666 154.941 22.0276 154.941 25.376H156.941C156.941 22.1644 157.466 19.9934 158.352 18.6905L156.698 17.5655ZM154.941 25.376C154.941 28.6943 155.466 31.3403 156.668 33.1527L158.335 32.0473C157.457 30.7237 156.941 28.5537 156.941 25.376H154.941ZM156.671 33.1567C157.92 35.0207 159.812 35.928 162.181 35.928V33.928C160.39 33.928 159.163 33.2833 158.332 32.0433L156.671 33.1567ZM162.181 35.928C164.55 35.928 166.443 35.0207 167.692 33.1567L166.031 32.0433C165.2 33.2833 163.972 33.928 162.181 33.928V35.928ZM167.695 33.1527C168.897 31.3392 169.421 28.6759 169.421 25.328H167.421C167.421 28.5401 166.905 30.7248 166.028 32.0473L167.695 33.1527ZM169.421 25.328C169.421 21.9962 168.898 19.3465 167.692 17.5473L166.031 18.6607C166.905 19.9655 167.421 22.1318 167.421 25.328H169.421ZM167.696 17.5533C166.464 15.6862 164.586 14.776 162.229 14.776V16.776C164.001 16.776 165.21 17.4178 166.027 18.6547L167.696 17.5533ZM181.146 38H180.146V39H181.146V38ZM181.146 12.704V11.704H180.146V12.704H181.146ZM185.106 12.704L186.102 12.6059L186.013 11.704H185.106V12.704ZM185.442 16.112L184.447 16.2101L184.688 18.6501L186.222 16.7379L185.442 16.112ZM189.234 13.136L188.819 12.2266L188.815 12.2283L189.234 13.136ZM199.099 14.096L198.343 14.7513L198.347 14.7558L199.099 14.096ZM200.826 38V39H201.826V38H200.826ZM196.218 38H195.218V39H196.218V38ZM195.931 18.536L194.945 18.708L194.947 18.717L194.949 18.726L195.931 18.536ZM194.802 16.352L195.416 15.5626L194.802 16.352ZM189.594 16.28L190.035 17.1779L189.594 16.28ZM187.386 17.792L186.707 17.0585L186.698 17.067L187.386 17.792ZM185.755 19.688L184.929 19.124L184.755 19.3791V19.688H185.755ZM185.755 38V39H186.755V38H185.755ZM182.146 38V12.704H180.146V38H182.146ZM181.146 13.704H185.106V11.704H181.146V13.704ZM184.111 12.8021L184.447 16.2101L186.438 16.0139L186.102 12.6059L184.111 12.8021ZM186.222 16.7379C187.167 15.5607 188.308 14.6659 189.654 14.0437L188.815 12.2283C187.185 12.9821 185.798 14.0713 184.663 15.4861L186.222 16.7379ZM189.65 14.0454C191.039 13.4104 192.393 13.104 193.723 13.104V11.104C192.076 11.104 190.438 11.4856 188.819 12.2266L189.65 14.0454ZM193.723 13.104C195.981 13.104 197.446 13.7168 198.343 14.7513L199.854 13.4407C198.447 11.8192 196.328 11.104 193.723 11.104V13.104ZM198.347 14.7558C199.29 15.8302 199.826 17.3977 199.826 19.592H201.826C201.826 17.0823 201.211 14.9858 199.85 13.4362L198.347 14.7558ZM199.826 19.592V38H201.826V19.592H199.826ZM200.826 37H196.218V39H200.826V37ZM197.218 38V22.424H195.218V38H197.218ZM197.218 22.424C197.218 20.7925 197.121 19.4258 196.912 18.346L194.949 18.726C195.124 19.6301 195.218 20.8555 195.218 22.424H197.218ZM196.916 18.364C196.714 17.2097 196.255 16.2151 195.416 15.5626L194.189 17.1413C194.502 17.3849 194.795 17.8463 194.945 18.708L196.916 18.364ZM195.416 15.5626C194.587 14.9176 193.453 14.68 192.187 14.68V16.68C193.256 16.68 193.866 16.8904 194.189 17.1413L195.416 15.5626ZM192.187 14.68C191.122 14.68 190.108 14.9147 189.154 15.3821L190.035 17.1779C190.713 16.8453 191.427 16.68 192.187 16.68V14.68ZM189.154 15.3821C188.252 15.8243 187.435 16.3833 186.707 17.0586L188.066 18.5254C188.65 17.9847 189.305 17.5357 190.035 17.1779L189.154 15.3821ZM186.698 17.067C186.012 17.7184 185.421 18.4036 184.929 19.124L186.58 20.252C186.984 19.6604 187.481 19.0816 188.075 18.517L186.698 17.067ZM184.755 19.688V38H186.755V19.688H184.755ZM185.755 37H181.146V39H185.755V37ZM229.056 34.4L228.233 34.9677L228.237 34.9745L228.242 34.9812L229.056 34.4ZM230.568 35.408L231.514 35.7307L231.841 34.771L230.877 34.4571L230.568 35.408ZM229.488 38.576L229.364 39.5683L230.172 39.6693L230.434 38.8987L229.488 38.576ZM224.592 35.048L225.529 34.6998L224.906 33.0211L223.804 34.4326L224.592 35.048ZM221.136 37.712L221.527 38.6323L221.536 38.6284L221.136 37.712ZM210.576 36.44L211.275 35.7252L210.576 36.44ZM211.44 24.68L210.876 23.8539L210.873 23.856L211.44 24.68ZM223.992 22.568V23.568H224.992V22.568H223.992ZM222.432 16.928L221.848 17.74L221.854 17.7443L222.432 16.928ZM215.16 16.136L214.982 15.1519L215.16 16.136ZM211.488 17.12L210.544 17.4503L210.873 18.3906L211.814 18.0651L211.488 17.12ZM210.312 13.76L209.959 12.8245L209.045 13.1692L209.368 14.0904L210.312 13.76ZM214.8 12.488L214.625 11.5034L214.623 11.5038L214.8 12.488ZM226.152 14.336L225.474 15.0716L225.478 15.0753L226.152 14.336ZM223.992 31.688L224.831 32.2313L224.992 31.9833V31.688H223.992ZM223.992 25.568H224.992V24.568H223.992V25.568ZM214.944 26.936L215.568 27.7169L215.575 27.7114L214.944 26.936ZM214.416 33.992L215.123 33.2849L214.416 33.992ZM227.576 32.192C227.576 33.263 227.738 34.2502 228.233 34.9677L229.879 33.8323C229.734 33.6218 229.576 33.137 229.576 32.192H227.576ZM228.242 34.9812C228.72 35.6507 229.431 36.0894 230.258 36.3589L230.877 34.4571C230.329 34.2786 230.031 34.0453 229.869 33.8188L228.242 34.9812ZM229.621 35.0853L228.541 38.2533L230.434 38.8987L231.514 35.7307L229.621 35.0853ZM229.612 37.5837C228.585 37.4554 227.732 37.1543 227.028 36.7023L225.948 38.3857C226.939 39.0217 228.086 39.4086 229.364 39.5683L229.612 37.5837ZM227.028 36.7023C226.394 36.296 225.884 35.6556 225.529 34.6998L223.654 35.3962C224.131 36.6804 224.885 37.704 225.948 38.3857L227.028 36.7023ZM223.804 34.4326C222.996 35.4662 221.979 36.2524 220.735 36.7956L221.536 38.6284C223.076 37.9556 224.363 36.9658 225.38 35.6634L223.804 34.4326ZM220.744 36.7918C219.486 37.3271 218.108 37.6 216.6 37.6V39.6C218.356 39.6 220.002 39.2809 221.527 38.6322L220.744 36.7918ZM216.6 37.6C214.252 37.6 212.518 36.9414 211.275 35.7252L209.876 37.1548C211.577 38.8186 213.859 39.6 216.6 39.6V37.6ZM211.275 35.7252C210.023 34.5006 209.368 32.8767 209.368 30.752H207.368C207.368 33.3313 208.184 35.4994 209.876 37.1548L211.275 35.7252ZM209.368 30.752C209.368 28.417 210.249 26.7121 212.006 25.504L210.873 23.856C208.534 25.4639 207.368 27.807 207.368 30.752H209.368ZM212.003 25.5061C213.833 24.2576 216.563 23.568 220.32 23.568V21.568C216.364 21.568 213.174 22.2864 210.876 23.8539L212.003 25.5061ZM220.32 23.568H223.992V21.568H220.32V23.568ZM224.992 22.568V20.648H222.992V22.568H224.992ZM224.992 20.648C224.992 18.7094 224.405 17.0994 223.009 16.1117L221.854 17.7443C222.538 18.2286 222.992 19.0986 222.992 20.648H224.992ZM223.015 16.116C221.759 15.2133 220.093 14.824 218.136 14.824V16.824C219.858 16.824 221.056 17.1707 221.848 17.74L223.015 16.116ZM218.136 14.824C217.226 14.824 216.171 14.9372 214.982 15.1519L215.337 17.1201C216.452 16.9188 217.382 16.824 218.136 16.824V14.824ZM214.982 15.1519C213.772 15.3704 212.498 15.7128 211.161 16.1749L211.814 18.0651C213.07 17.6312 214.244 17.3176 215.337 17.1201L214.982 15.1519ZM212.432 16.7896L211.256 13.4296L209.368 14.0904L210.544 17.4503L212.432 16.7896ZM210.665 14.6955C212.185 14.1218 213.621 13.7159 214.977 13.4722L214.623 11.5038C213.13 11.7721 211.575 12.2142 209.959 12.8245L210.665 14.6955ZM214.975 13.4726C216.367 13.2251 217.651 13.104 218.832 13.104V11.104C217.516 11.104 216.113 11.2389 214.625 11.5034L214.975 13.4726ZM218.832 13.104C221.964 13.104 224.115 13.8202 225.474 15.0716L226.829 13.6004C224.956 11.8758 222.227 11.104 218.832 11.104V13.104ZM225.478 15.0753C226.849 16.3237 227.576 18.0585 227.576 20.408H229.576C229.576 17.6055 228.687 15.2923 226.825 13.5967L225.478 15.0753ZM227.576 20.408V32.192H229.576V20.408H227.576ZM217.896 36.144C219.26 36.144 220.563 35.7917 221.792 35.1049L220.816 33.3591C219.869 33.8883 218.9 34.144 217.896 34.144V36.144ZM221.792 35.1049C223.028 34.4142 224.042 33.4506 224.831 32.2313L223.152 31.1447C222.533 32.1014 221.756 32.8338 220.816 33.3591L221.792 35.1049ZM224.992 31.688V25.568H222.992V31.688H224.992ZM223.992 24.568H220.632V26.568H223.992V24.568ZM220.632 24.568C217.901 24.568 215.709 25.0231 214.312 26.1606L215.575 27.7114C216.418 27.0249 218.018 26.568 220.632 26.568V24.568ZM214.319 26.1551C212.938 27.2602 212.264 28.7926 212.264 30.632H214.264C214.264 29.3354 214.71 28.4038 215.568 27.7169L214.319 26.1551ZM212.264 30.632C212.264 32.2724 212.694 33.6847 213.709 34.6991L215.123 33.2849C214.601 32.7633 214.264 31.9356 214.264 30.632H212.264ZM213.709 34.6991C214.732 35.7225 216.193 36.144 217.896 36.144V34.144C216.494 34.144 215.635 33.7975 215.123 33.2849L213.709 34.6991ZM251.909 33.92L251.378 33.0727L251.372 33.0763L251.909 33.92ZM253.085 29.288L252.196 29.746L252.201 29.7565L252.207 29.7669L253.085 29.288ZM251.357 27.848L250.91 28.7425L250.916 28.7457L251.357 27.848ZM247.421 26.528L247.668 25.5589L247.666 25.5584L247.421 26.528ZM239.957 22.76L239.154 23.3556L239.16 23.3644L239.957 22.76ZM240.125 15.416L239.334 14.8045L239.328 14.8121L240.125 15.416ZM243.557 12.968L243.196 12.0354L243.193 12.0368L243.557 12.968ZM254.165 12.944L253.822 13.8836L253.834 13.8877L254.165 12.944ZM258.101 14.96L258.937 15.5085L259.453 14.7215L258.699 14.1586L258.101 14.96ZM256.133 17.96L255.575 18.7899L256.414 19.3541L256.969 18.5085L256.133 17.96ZM252.917 16.352L252.577 17.2926L252.581 17.294L252.917 16.352ZM244.829 16.592L245.41 17.4057L245.413 17.4035L244.829 16.592ZM244.229 20.552L243.459 21.1896L243.471 21.204L243.483 21.218L244.229 20.552ZM246.269 21.8L245.898 22.7285L246.269 21.8ZM250.253 23.072L249.989 24.0366L249.991 24.037L250.253 23.072ZM254.573 24.656L255.016 23.7593L254.573 24.656ZM257.429 27.056L256.601 27.6168L256.606 27.6245L256.612 27.6322L257.429 27.056ZM256.901 35.336L257.634 36.0165L257.639 36.0113L256.901 35.336ZM252.845 37.808L252.543 36.8548L252.54 36.8557L252.845 37.808ZM241.613 37.592L241.235 38.518L241.239 38.5192L241.613 37.592ZM237.461 35.12L236.706 34.4641L236.051 35.2179L236.804 35.8739L237.461 35.12ZM240.005 32.192L240.64 31.4197L239.889 30.8013L239.25 31.5361L240.005 32.192ZM243.413 34.184L243.042 35.1125L243.052 35.1164L243.413 34.184ZM247.565 35.928C249.511 35.928 251.171 35.5751 252.446 34.7637L251.372 33.0763C250.535 33.6089 249.299 33.928 247.565 33.928V35.928ZM252.44 34.7673C253.77 33.9339 254.517 32.7189 254.517 31.184H252.517C252.517 31.9531 252.192 32.5621 251.378 33.0727L252.44 34.7673ZM254.517 31.184C254.517 30.3177 254.347 29.5135 253.963 28.8091L252.207 29.7669C252.399 30.1185 252.517 30.5783 252.517 31.184H254.517ZM253.974 28.83C253.558 28.0225 252.756 27.4208 251.798 26.9503L250.916 28.7457C251.718 29.1392 252.068 29.4975 252.196 29.746L253.974 28.83ZM251.804 26.9536C250.843 26.4729 249.448 26.012 247.668 25.5589L247.174 27.4971C248.914 27.94 250.143 28.3591 250.91 28.7424L251.804 26.9536ZM247.666 25.5584C245.997 25.1372 244.558 24.6508 243.343 24.1041L242.523 25.9279C243.868 26.5332 245.421 27.0548 247.176 27.4976L247.666 25.5584ZM243.343 24.1041C242.185 23.5827 241.338 22.9257 240.754 22.1556L239.16 23.3644C239.984 24.4503 241.121 25.2973 242.523 25.9279L243.343 24.1041ZM240.76 22.1644C240.231 21.4509 239.925 20.4768 239.925 19.16H237.925C237.925 20.7872 238.307 22.2131 239.154 23.3556L240.76 22.1644ZM239.925 19.16C239.925 17.9179 240.265 16.8867 240.922 16.0199L239.328 14.8121C238.385 16.0573 237.925 17.5221 237.925 19.16H239.925ZM240.916 16.0274C241.603 15.1392 242.587 14.4215 243.921 13.8992L243.193 12.0368C241.583 12.6665 240.279 13.5808 239.334 14.8046L240.916 16.0274ZM243.918 13.9006C245.267 13.3782 246.869 13.104 248.741 13.104V11.104C246.677 11.104 244.823 11.4058 243.196 12.0354L243.918 13.9006ZM248.741 13.104C250.735 13.104 252.422 13.3727 253.822 13.8835L254.508 12.0045C252.836 11.3953 250.907 11.104 248.741 11.104V13.104ZM253.834 13.8877C255.312 14.4055 256.528 15.0342 257.503 15.7614L258.699 14.1586C257.53 13.2858 256.122 12.5705 254.496 12.0003L253.834 13.8877ZM257.265 14.4115L255.297 17.4115L256.969 18.5085L258.937 15.5085L257.265 14.4115ZM256.691 17.13C255.642 16.4251 254.495 15.8524 253.253 15.41L252.581 17.294C253.675 17.6836 254.672 18.1829 255.575 18.7899L256.691 17.13ZM253.257 15.4114C251.97 14.9468 250.49 14.728 248.837 14.728V16.728C250.32 16.728 251.56 16.9252 252.577 17.2926L253.257 15.4114ZM248.837 14.728C246.916 14.728 245.311 15.0131 244.245 15.7805L245.413 17.4035C245.947 17.0189 247.014 16.728 248.837 16.728V14.728ZM244.248 15.7783C243.213 16.5175 242.653 17.5587 242.653 18.824H244.653C244.653 18.2333 244.877 17.7865 245.41 17.4057L244.248 15.7783ZM242.653 18.824C242.653 19.7097 242.905 20.521 243.459 21.1896L244.999 19.9144C244.785 19.655 244.653 19.3142 244.653 18.824H242.653ZM243.483 21.218C244.035 21.8364 244.884 22.3229 245.898 22.7285L246.64 20.8715C245.734 20.5091 245.223 20.1636 244.975 19.886L243.483 21.218ZM245.898 22.7285C246.909 23.1329 248.278 23.5684 249.989 24.0366L250.517 22.1074C248.836 21.6476 247.549 21.2351 246.64 20.8715L245.898 22.7285ZM249.991 24.037C251.591 24.472 252.968 24.9791 254.13 25.5527L255.016 23.7593C253.714 23.1169 252.211 22.568 250.515 22.107L249.991 24.037ZM254.13 25.5527C255.23 26.0955 256.04 26.7882 256.601 27.6168L258.257 26.4952C257.474 25.3398 256.38 24.4325 255.016 23.7593L254.13 25.5527ZM256.612 27.6322C257.146 28.3908 257.461 29.4573 257.461 30.92H259.461C259.461 29.1827 259.088 27.6732 258.246 26.4798L256.612 27.6322ZM257.461 30.92C257.461 32.5243 257.006 33.7406 256.163 34.6607L257.639 36.0113C258.876 34.6594 259.461 32.9317 259.461 30.92H257.461ZM256.168 34.6555C255.262 35.6319 254.066 36.3715 252.543 36.8548L253.147 38.7612C254.952 38.1885 256.46 37.2801 257.634 36.0164L256.168 34.6555ZM252.54 36.8557C250.998 37.3496 249.342 37.6 247.565 37.6V39.6C249.532 39.6 251.396 39.3224 253.15 38.7603L252.54 36.8557ZM247.565 37.6C245.354 37.6 243.504 37.2772 241.987 36.6648L241.239 38.5192C243.05 39.2508 245.167 39.6 247.565 39.6V37.6ZM241.991 36.666C240.425 36.0276 239.14 35.257 238.118 34.3661L236.804 35.8739C238.022 36.935 239.505 37.8124 241.235 38.518L241.991 36.666ZM238.216 35.7759L240.76 32.8479L239.25 31.5361L236.706 34.4641L238.216 35.7759ZM239.37 32.9643C240.447 33.8502 241.673 34.5651 243.042 35.1125L243.784 33.2555C242.593 32.7789 241.547 32.1658 240.64 31.4197L239.37 32.9643ZM243.052 35.1164C244.456 35.6607 245.964 35.928 247.565 35.928V33.928C246.19 33.928 244.93 33.6993 243.774 33.2516L243.052 35.1164Z" fill="#1C1C1C" mask="url(#path-5-outside-3_0_1)"/>
</g>
<g filter="url(#filter1_d_0_1)">
<mask id="path-7-outside-4_0_1" maskUnits="userSpaceOnUse" x="119" y="44" width="200" height="41" fill="black">
<rect fill="white" x="119" y="44" width="200" height="41"/>
<path d="M144.992 73.76C144.992 75.68 144.504 77.384 143.528 78.872C142.568 80.344 141.176 81.504 139.352 82.352C137.528 83.184 135.304 83.6 132.68 83.6C130.152 83.6 127.896 83.216 125.912 82.448C123.928 81.68 122.24 80.624 120.848 79.28L123.56 76.232C124.712 77.304 126.032 78.152 127.52 78.776C129.008 79.4 130.744 79.712 132.728 79.712C134.024 79.712 135.224 79.504 136.328 79.088C137.448 78.656 138.344 78.016 139.016 77.168C139.704 76.304 140.048 75.224 140.048 73.928C140.048 72.888 139.84 72.008 139.424 71.288C139.024 70.568 138.312 69.928 137.288 69.368C136.264 68.808 134.832 68.256 132.992 67.712C130.752 67.04 128.832 66.296 127.232 65.48C125.648 64.648 124.432 63.632 123.584 62.432C122.752 61.232 122.336 59.76 122.336 58.016C122.336 56.304 122.808 54.8 123.752 53.504C124.696 52.192 125.992 51.168 127.64 50.432C129.304 49.696 131.2 49.328 133.328 49.328C135.648 49.328 137.672 49.664 139.4 50.336C141.144 50.992 142.712 51.944 144.104 53.192L141.464 56.168C140.296 55.128 139.032 54.376 137.672 53.912C136.312 53.432 134.936 53.192 133.544 53.192C132.376 53.192 131.312 53.368 130.352 53.72C129.392 54.056 128.624 54.56 128.048 55.232C127.488 55.904 127.208 56.76 127.208 57.8C127.208 58.712 127.456 59.496 127.952 60.152C128.448 60.792 129.288 61.392 130.472 61.952C131.656 62.496 133.264 63.072 135.296 63.68C137.072 64.192 138.696 64.832 140.168 65.6C141.64 66.368 142.808 67.4 143.672 68.696C144.552 69.976 144.992 71.664 144.992 73.76ZM172.909 81.704C172.013 82.28 170.933 82.736 169.669 83.072C168.405 83.424 167.141 83.6 165.877 83.6C163.061 83.6 160.901 82.864 159.397 81.392C157.909 79.92 157.165 78.008 157.165 75.656V61.16H151.429V57.704H157.165V51.992L161.773 51.44V57.704H170.413L169.885 61.16H161.773V75.608C161.773 77 162.125 78.048 162.829 78.752C163.549 79.456 164.741 79.808 166.405 79.808C167.349 79.808 168.213 79.696 168.997 79.472C169.781 79.248 170.509 78.96 171.181 78.608L172.909 81.704ZM194.395 57.704V79.496H201.427V83H182.083V79.496H189.786V61.208H182.323V57.704H194.395ZM190.963 45.608C191.923 45.608 192.691 45.904 193.267 46.496C193.859 47.088 194.155 47.808 194.155 48.656C194.155 49.536 193.859 50.28 193.267 50.888C192.691 51.48 191.923 51.776 190.963 51.776C190.019 51.776 189.251 51.48 188.659 50.888C188.083 50.28 187.795 49.536 187.795 48.656C187.795 47.808 188.083 47.088 188.659 46.496C189.251 45.904 190.019 45.608 190.963 45.608ZM213.648 71.912C213.744 73.768 214.12 75.288 214.776 76.472C215.432 77.64 216.288 78.504 217.344 79.064C218.4 79.608 219.568 79.88 220.848 79.88C222.112 79.88 223.272 79.688 224.328 79.304C225.384 78.92 226.456 78.36 227.544 77.624L229.632 80.528C228.448 81.472 227.08 82.224 225.528 82.784C223.976 83.328 222.368 83.6 220.704 83.6C218.176 83.6 216.024 83.048 214.248 81.944C212.488 80.824 211.144 79.272 210.216 77.288C209.304 75.304 208.848 73 208.848 70.376C208.848 67.832 209.304 65.56 210.216 63.56C211.144 61.56 212.448 59.984 214.128 58.832C215.808 57.68 217.808 57.104 220.128 57.104C222.304 57.104 224.176 57.608 225.744 58.616C227.328 59.624 228.544 61.064 229.392 62.936C230.24 64.792 230.664 67.016 230.664 69.608C230.664 70.04 230.656 70.456 230.64 70.856C230.624 71.256 230.6 71.608 230.568 71.912H213.648ZM220.176 60.704C218.384 60.704 216.888 61.344 215.688 62.624C214.504 63.904 213.824 65.88 213.648 68.552H226.224C226.176 65.992 225.616 64.048 224.544 62.72C223.488 61.376 222.032 60.704 220.176 60.704ZM253.853 46.976C255.293 46.976 256.589 47.104 257.741 47.36C258.893 47.6 259.981 47.944 261.005 48.392L259.565 51.704C258.749 51.352 257.877 51.088 256.949 50.912C256.037 50.736 255.101 50.648 254.141 50.648C252.413 50.648 251.125 50.984 250.277 51.656C249.429 52.328 249.005 53.36 249.005 54.752V59.6H257.549L257.045 63.104H249.005V83H244.421V63.104H238.493V59.6H244.421V54.776C244.421 53.192 244.821 51.816 245.621 50.648C246.437 49.48 247.549 48.576 248.957 47.936C250.381 47.296 252.013 46.976 253.853 46.976ZM271.21 71.912C271.306 73.768 271.682 75.288 272.338 76.472C272.994 77.64 273.85 78.504 274.906 79.064C275.962 79.608 277.13 79.88 278.41 79.88C279.674 79.88 280.834 79.688 281.89 79.304C282.946 78.92 284.018 78.36 285.106 77.624L287.194 80.528C286.01 81.472 284.642 82.224 283.09 82.784C281.538 83.328 279.93 83.6 278.266 83.6C275.738 83.6 273.586 83.048 271.81 81.944C270.05 80.824 268.706 79.272 267.778 77.288C266.866 75.304 266.41 73 266.41 70.376C266.41 67.832 266.866 65.56 267.778 63.56C268.706 61.56 270.01 59.984 271.69 58.832C273.37 57.68 275.37 57.104 277.69 57.104C279.866 57.104 281.738 57.608 283.306 58.616C284.89 59.624 286.106 61.064 286.954 62.936C287.802 64.792 288.226 67.016 288.226 69.608C288.226 70.04 288.218 70.456 288.202 70.856C288.186 71.256 288.162 71.608 288.13 71.912H271.21ZM277.738 60.704C275.946 60.704 274.45 61.344 273.25 62.624C272.066 63.904 271.386 65.88 271.21 68.552H283.786C283.738 65.992 283.178 64.048 282.106 62.72C281.05 61.376 279.594 60.704 277.738 60.704ZM296.512 83V79.592H300.352V61.112H296.512V57.704H303.88L304.72 63.632C305.68 61.536 306.856 59.928 308.248 58.808C309.656 57.672 311.48 57.104 313.72 57.104C314.456 57.104 315.104 57.16 315.664 57.272C316.24 57.384 316.824 57.528 317.416 57.704L316.048 61.736C315.52 61.576 315.04 61.464 314.608 61.4C314.176 61.336 313.68 61.304 313.12 61.304C311.216 61.304 309.584 61.992 308.224 63.368C306.864 64.744 305.776 66.768 304.96 69.44V79.592H310.096V83H296.512ZM313.144 66.584V60.776L313.672 57.704H317.416L316.696 66.584H313.144Z"/>
</mask>
<path d="M144.992 73.76C144.992 75.68 144.504 77.384 143.528 78.872C142.568 80.344 141.176 81.504 139.352 82.352C137.528 83.184 135.304 83.6 132.68 83.6C130.152 83.6 127.896 83.216 125.912 82.448C123.928 81.68 122.24 80.624 120.848 79.28L123.56 76.232C124.712 77.304 126.032 78.152 127.52 78.776C129.008 79.4 130.744 79.712 132.728 79.712C134.024 79.712 135.224 79.504 136.328 79.088C137.448 78.656 138.344 78.016 139.016 77.168C139.704 76.304 140.048 75.224 140.048 73.928C140.048 72.888 139.84 72.008 139.424 71.288C139.024 70.568 138.312 69.928 137.288 69.368C136.264 68.808 134.832 68.256 132.992 67.712C130.752 67.04 128.832 66.296 127.232 65.48C125.648 64.648 124.432 63.632 123.584 62.432C122.752 61.232 122.336 59.76 122.336 58.016C122.336 56.304 122.808 54.8 123.752 53.504C124.696 52.192 125.992 51.168 127.64 50.432C129.304 49.696 131.2 49.328 133.328 49.328C135.648 49.328 137.672 49.664 139.4 50.336C141.144 50.992 142.712 51.944 144.104 53.192L141.464 56.168C140.296 55.128 139.032 54.376 137.672 53.912C136.312 53.432 134.936 53.192 133.544 53.192C132.376 53.192 131.312 53.368 130.352 53.72C129.392 54.056 128.624 54.56 128.048 55.232C127.488 55.904 127.208 56.76 127.208 57.8C127.208 58.712 127.456 59.496 127.952 60.152C128.448 60.792 129.288 61.392 130.472 61.952C131.656 62.496 133.264 63.072 135.296 63.68C137.072 64.192 138.696 64.832 140.168 65.6C141.64 66.368 142.808 67.4 143.672 68.696C144.552 69.976 144.992 71.664 144.992 73.76ZM172.909 81.704C172.013 82.28 170.933 82.736 169.669 83.072C168.405 83.424 167.141 83.6 165.877 83.6C163.061 83.6 160.901 82.864 159.397 81.392C157.909 79.92 157.165 78.008 157.165 75.656V61.16H151.429V57.704H157.165V51.992L161.773 51.44V57.704H170.413L169.885 61.16H161.773V75.608C161.773 77 162.125 78.048 162.829 78.752C163.549 79.456 164.741 79.808 166.405 79.808C167.349 79.808 168.213 79.696 168.997 79.472C169.781 79.248 170.509 78.96 171.181 78.608L172.909 81.704ZM194.395 57.704V79.496H201.427V83H182.083V79.496H189.786V61.208H182.323V57.704H194.395ZM190.963 45.608C191.923 45.608 192.691 45.904 193.267 46.496C193.859 47.088 194.155 47.808 194.155 48.656C194.155 49.536 193.859 50.28 193.267 50.888C192.691 51.48 191.923 51.776 190.963 51.776C190.019 51.776 189.251 51.48 188.659 50.888C188.083 50.28 187.795 49.536 187.795 48.656C187.795 47.808 188.083 47.088 188.659 46.496C189.251 45.904 190.019 45.608 190.963 45.608ZM213.648 71.912C213.744 73.768 214.12 75.288 214.776 76.472C215.432 77.64 216.288 78.504 217.344 79.064C218.4 79.608 219.568 79.88 220.848 79.88C222.112 79.88 223.272 79.688 224.328 79.304C225.384 78.92 226.456 78.36 227.544 77.624L229.632 80.528C228.448 81.472 227.08 82.224 225.528 82.784C223.976 83.328 222.368 83.6 220.704 83.6C218.176 83.6 216.024 83.048 214.248 81.944C212.488 80.824 211.144 79.272 210.216 77.288C209.304 75.304 208.848 73 208.848 70.376C208.848 67.832 209.304 65.56 210.216 63.56C211.144 61.56 212.448 59.984 214.128 58.832C215.808 57.68 217.808 57.104 220.128 57.104C222.304 57.104 224.176 57.608 225.744 58.616C227.328 59.624 228.544 61.064 229.392 62.936C230.24 64.792 230.664 67.016 230.664 69.608C230.664 70.04 230.656 70.456 230.64 70.856C230.624 71.256 230.6 71.608 230.568 71.912H213.648ZM220.176 60.704C218.384 60.704 216.888 61.344 215.688 62.624C214.504 63.904 213.824 65.88 213.648 68.552H226.224C226.176 65.992 225.616 64.048 224.544 62.72C223.488 61.376 222.032 60.704 220.176 60.704ZM253.853 46.976C255.293 46.976 256.589 47.104 257.741 47.36C258.893 47.6 259.981 47.944 261.005 48.392L259.565 51.704C258.749 51.352 257.877 51.088 256.949 50.912C256.037 50.736 255.101 50.648 254.141 50.648C252.413 50.648 251.125 50.984 250.277 51.656C249.429 52.328 249.005 53.36 249.005 54.752V59.6H257.549L257.045 63.104H249.005V83H244.421V63.104H238.493V59.6H244.421V54.776C244.421 53.192 244.821 51.816 245.621 50.648C246.437 49.48 247.549 48.576 248.957 47.936C250.381 47.296 252.013 46.976 253.853 46.976ZM271.21 71.912C271.306 73.768 271.682 75.288 272.338 76.472C272.994 77.64 273.85 78.504 274.906 79.064C275.962 79.608 277.13 79.88 278.41 79.88C279.674 79.88 280.834 79.688 281.89 79.304C282.946 78.92 284.018 78.36 285.106 77.624L287.194 80.528C286.01 81.472 284.642 82.224 283.09 82.784C281.538 83.328 279.93 83.6 278.266 83.6C275.738 83.6 273.586 83.048 271.81 81.944C270.05 80.824 268.706 79.272 267.778 77.288C266.866 75.304 266.41 73 266.41 70.376C266.41 67.832 266.866 65.56 267.778 63.56C268.706 61.56 270.01 59.984 271.69 58.832C273.37 57.68 275.37 57.104 277.69 57.104C279.866 57.104 281.738 57.608 283.306 58.616C284.89 59.624 286.106 61.064 286.954 62.936C287.802 64.792 288.226 67.016 288.226 69.608C288.226 70.04 288.218 70.456 288.202 70.856C288.186 71.256 288.162 71.608 288.13 71.912H271.21ZM277.738 60.704C275.946 60.704 274.45 61.344 273.25 62.624C272.066 63.904 271.386 65.88 271.21 68.552H283.786C283.738 65.992 283.178 64.048 282.106 62.72C281.05 61.376 279.594 60.704 277.738 60.704ZM296.512 83V79.592H300.352V61.112H296.512V57.704H303.88L304.72 63.632C305.68 61.536 306.856 59.928 308.248 58.808C309.656 57.672 311.48 57.104 313.72 57.104C314.456 57.104 315.104 57.16 315.664 57.272C316.24 57.384 316.824 57.528 317.416 57.704L316.048 61.736C315.52 61.576 315.04 61.464 314.608 61.4C314.176 61.336 313.68 61.304 313.12 61.304C311.216 61.304 309.584 61.992 308.224 63.368C306.864 64.744 305.776 66.768 304.96 69.44V79.592H310.096V83H296.512ZM313.144 66.584V60.776L313.672 57.704H317.416L316.696 66.584H313.144Z" fill="white"/>
<path d="M143.528 78.872L142.692 78.3235L142.69 78.3257L143.528 78.872ZM139.352 82.352L139.767 83.2618L139.774 83.2588L139.352 82.352ZM125.912 82.448L126.273 81.5154L125.912 82.448ZM120.848 79.28L120.101 78.6153L119.463 79.3325L120.153 79.9994L120.848 79.28ZM123.56 76.232L124.241 75.4999L123.493 74.8033L122.813 75.5673L123.56 76.232ZM127.52 78.776L127.907 77.8538L127.52 78.776ZM136.328 79.088L136.681 80.0238L136.688 80.021L136.328 79.088ZM139.016 77.168L138.234 76.5451L138.232 76.5469L139.016 77.168ZM139.424 71.288L138.55 71.7736L138.554 71.781L138.558 71.7883L139.424 71.288ZM137.288 69.368L136.808 70.2454L136.808 70.2454L137.288 69.368ZM132.992 67.712L132.705 68.6698L132.708 68.671L132.992 67.712ZM127.232 65.48L126.767 66.3654L126.778 66.3708L127.232 65.48ZM123.584 62.432L122.762 63.0018L122.767 63.0091L123.584 62.432ZM123.752 53.504L124.56 54.0928L124.564 54.088L123.752 53.504ZM127.64 50.432L127.235 49.5175L127.232 49.5189L127.64 50.432ZM139.4 50.336L139.038 51.2681L139.048 51.272L139.4 50.336ZM144.104 53.192L144.852 53.8556L145.512 53.1115L144.772 52.4474L144.104 53.192ZM141.464 56.168L140.799 56.9148L141.547 57.5811L142.212 56.8316L141.464 56.168ZM137.672 53.912L137.339 54.855L137.349 54.8584L137.672 53.912ZM130.352 53.72L130.682 54.6639L130.689 54.6614L130.696 54.6589L130.352 53.72ZM128.048 55.232L127.289 54.5811L127.28 54.5918L128.048 55.232ZM127.952 60.152L127.154 60.7551L127.162 60.7646L127.952 60.152ZM130.472 61.952L130.044 62.856L130.055 62.8607L130.472 61.952ZM135.296 63.68L135.009 64.6381L135.019 64.6409L135.296 63.68ZM140.168 65.6L139.705 66.4866L140.168 65.6ZM143.672 68.696L142.84 69.2507L142.844 69.2566L142.848 69.2625L143.672 68.696ZM143.992 73.76C143.992 75.5012 143.552 77.0114 142.692 78.3235L144.364 79.4205C145.456 77.7566 145.992 75.8588 145.992 73.76H143.992ZM142.69 78.3257C141.847 79.6193 140.61 80.6644 138.93 81.4452L139.774 83.2588C141.742 82.3436 143.289 81.0687 144.366 79.4183L142.69 78.3257ZM138.937 81.4422C137.277 82.1994 135.203 82.6 132.68 82.6V84.6C135.405 84.6 137.779 84.1686 139.767 83.2618L138.937 81.4422ZM132.68 82.6C130.253 82.6 128.122 82.2313 126.273 81.5154L125.551 83.3806C127.67 84.2007 130.051 84.6 132.68 84.6V82.6ZM126.273 81.5154C124.401 80.7907 122.83 79.8032 121.543 78.5606L120.153 79.9994C121.65 81.4448 123.455 82.5693 125.551 83.3806L126.273 81.5154ZM121.595 79.9447L124.307 76.8967L122.813 75.5673L120.101 78.6153L121.595 79.9447ZM122.879 76.9641C124.119 78.1183 125.539 79.0298 127.133 79.6982L127.907 77.8538C126.525 77.2742 125.305 76.4897 124.241 75.4999L122.879 76.9641ZM127.133 79.6982C128.768 80.3839 130.641 80.712 132.728 80.712V78.712C130.847 78.712 129.248 78.4161 127.907 77.8538L127.133 79.6982ZM132.728 80.712C134.133 80.712 135.453 80.4862 136.681 80.0238L135.975 78.1522C134.995 78.5218 133.915 78.712 132.728 78.712V80.712ZM136.688 80.021C137.956 79.532 139.005 78.792 139.8 77.7891L138.232 76.5469C137.683 77.24 136.94 77.78 135.968 78.155L136.688 80.021ZM139.798 77.7909C140.651 76.7203 141.048 75.4094 141.048 73.928H139.048C139.048 75.0387 138.757 75.8877 138.234 76.5451L139.798 77.7909ZM141.048 73.928C141.048 72.7559 140.813 71.6935 140.29 70.7877L138.558 71.7883C138.867 72.3225 139.048 73.0201 139.048 73.928H141.048ZM140.298 70.8024C139.776 69.8619 138.892 69.1052 137.768 68.4906L136.808 70.2454C137.732 70.7507 138.272 71.2741 138.55 71.7736L140.298 70.8024ZM137.768 68.4906C136.655 67.8818 135.146 67.3061 133.276 66.753L132.708 68.671C134.518 69.2059 135.873 69.7342 136.808 70.2454L137.768 68.4906ZM133.279 66.7542C131.081 66.0946 129.22 65.3711 127.686 64.5892L126.778 66.3708C128.444 67.2209 130.423 67.9854 132.705 68.6698L133.279 66.7542ZM127.697 64.5947C126.223 63.8204 125.14 62.9007 124.401 61.8549L122.767 63.0091C123.724 64.3633 125.073 65.4756 126.767 66.3653L127.697 64.5947ZM124.406 61.8622C123.711 60.86 123.336 59.5968 123.336 58.016H121.336C121.336 59.9232 121.793 61.604 122.762 63.0018L124.406 61.8622ZM123.336 58.016C123.336 56.5004 123.75 55.2058 124.56 54.0928L122.944 52.9152C121.866 54.3942 121.336 56.1076 121.336 58.016H123.336ZM124.564 54.088C125.393 52.9357 126.542 52.0176 128.048 51.3451L127.232 49.5189C125.442 50.3184 123.999 51.4483 122.94 52.92L124.564 54.088ZM128.045 51.3465C129.561 50.6756 131.316 50.328 133.328 50.328V48.328C131.084 48.328 129.047 48.7164 127.235 49.5175L128.045 51.3465ZM133.328 50.328C135.554 50.328 137.45 50.6507 139.038 51.268L139.762 49.404C137.894 48.6773 135.742 48.328 133.328 48.328V50.328ZM139.048 51.272C140.675 51.8841 142.137 52.7711 143.436 53.9366L144.772 52.4474C143.287 51.1169 141.613 50.0999 139.752 49.4L139.048 51.272ZM143.356 52.5284L140.716 55.5044L142.212 56.8316L144.852 53.8556L143.356 52.5284ZM142.129 55.4212C140.87 54.3004 139.492 53.4763 137.995 52.9656L137.349 54.8584C138.572 55.2757 139.722 55.9556 140.799 56.9148L142.129 55.4212ZM138.005 52.969C136.542 52.4527 135.053 52.192 133.544 52.192V54.192C134.819 54.192 136.082 54.4113 137.339 54.855L138.005 52.969ZM133.544 52.192C132.275 52.192 131.093 52.3834 130.008 52.7811L130.696 54.6589C131.531 54.3526 132.477 54.192 133.544 54.192V52.192ZM130.022 52.7761C128.921 53.1615 127.996 53.7566 127.289 54.5812L128.807 55.8828C129.252 55.3634 129.863 54.9505 130.682 54.6639L130.022 52.7761ZM127.28 54.5918C126.543 55.4761 126.208 56.5723 126.208 57.8H128.208C128.208 56.9477 128.433 56.3319 128.816 55.8722L127.28 54.5918ZM126.208 57.8C126.208 58.9047 126.513 59.9065 127.154 60.7551L128.75 59.5489C128.399 59.0855 128.208 58.5193 128.208 57.8H126.208ZM127.162 60.7646C127.796 61.5828 128.796 62.2657 130.044 62.856L130.9 61.048C129.78 60.5183 129.1 60.0012 128.742 59.5394L127.162 60.7646ZM130.055 62.8607C131.299 63.4324 132.957 64.0238 135.009 64.638L135.583 62.722C133.571 62.1202 132.013 61.5596 130.89 61.0433L130.055 62.8607ZM135.019 64.6409C136.738 65.1364 138.299 65.7527 139.705 66.4866L140.631 64.7134C139.093 63.9113 137.406 63.2476 135.573 62.7191L135.019 64.6409ZM139.705 66.4866C141.038 67.1821 142.075 68.1039 142.84 69.2507L144.504 68.1413C143.541 66.6961 142.242 65.5539 140.631 64.7134L139.705 66.4866ZM142.848 69.2625C143.58 70.3267 143.992 71.7971 143.992 73.76H145.992C145.992 71.5309 145.524 69.6253 144.496 68.1295L142.848 69.2625ZM172.909 81.704L173.45 82.5452L174.24 82.0371L173.782 81.2166L172.909 81.704ZM169.669 83.072L169.412 82.1055L169.401 82.1087L169.669 83.072ZM159.397 81.392L158.694 82.1029L158.698 82.1067L159.397 81.392ZM157.165 61.16H158.165V60.16H157.165V61.16ZM151.429 61.16H150.429V62.16H151.429V61.16ZM151.429 57.704V56.704H150.429V57.704H151.429ZM157.165 57.704V58.704H158.165V57.704H157.165ZM157.165 51.992L157.046 50.9991L156.165 51.1046V51.992H157.165ZM161.773 51.44H162.773V50.3131L161.654 50.4471L161.773 51.44ZM161.773 57.704H160.773V58.704H161.773V57.704ZM170.413 57.704L171.402 57.855L171.578 56.704H170.413V57.704ZM169.885 61.16V62.16H170.744L170.874 61.311L169.885 61.16ZM161.773 61.16V60.16H160.773V61.16H161.773ZM162.829 78.752L162.122 79.4592L162.13 79.467L162.829 78.752ZM168.997 79.472L169.272 80.4335L168.997 79.472ZM171.181 78.608L172.054 78.1206L171.58 77.2703L170.717 77.7222L171.181 78.608ZM172.368 80.8628C171.577 81.3714 170.598 81.7904 169.412 82.1056L169.926 84.0384C171.269 83.6816 172.449 83.1886 173.45 82.5452L172.368 80.8628ZM169.401 82.1087C168.221 82.4373 167.047 82.6 165.877 82.6V84.6C167.235 84.6 168.59 84.4107 169.938 84.0353L169.401 82.1087ZM165.877 82.6C163.232 82.6 161.358 81.9114 160.097 80.6773L158.698 82.1067C160.445 83.8166 162.891 84.6 165.877 84.6V82.6ZM160.101 80.6811C158.827 79.4209 158.165 77.7771 158.165 75.656H156.165C156.165 78.2389 156.992 80.4191 158.694 82.1029L160.101 80.6811ZM158.165 75.656V61.16H156.165V75.656H158.165ZM157.165 60.16H151.429V62.16H157.165V60.16ZM152.429 61.16V57.704H150.429V61.16H152.429ZM151.429 58.704H157.165V56.704H151.429V58.704ZM158.165 57.704V51.992H156.165V57.704H158.165ZM157.284 52.9849L161.892 52.4329L161.654 50.4471L157.046 50.9991L157.284 52.9849ZM160.773 51.44V57.704H162.773V51.44H160.773ZM161.773 58.704H170.413V56.704H161.773V58.704ZM169.425 57.553L168.897 61.009L170.874 61.311L171.402 57.855L169.425 57.553ZM169.885 60.16H161.773V62.16H169.885V60.16ZM160.773 61.16V75.608H162.773V61.16H160.773ZM160.773 75.608C160.773 77.158 161.166 78.5034 162.122 79.4591L163.536 78.0449C163.084 77.5926 162.773 76.842 162.773 75.608H160.773ZM162.13 79.467C163.127 80.4418 164.641 80.808 166.405 80.808V78.808C164.841 78.808 163.971 78.4702 163.528 78.037L162.13 79.467ZM166.405 80.808C167.428 80.808 168.386 80.6867 169.272 80.4335L168.723 78.5105C168.041 78.7053 167.271 78.808 166.405 78.808V80.808ZM169.272 80.4335C170.117 80.1922 170.909 79.8797 171.645 79.4938L170.717 77.7222C170.11 78.0403 169.446 78.3038 168.723 78.5105L169.272 80.4335ZM170.308 79.0954L172.036 82.1914L173.782 81.2166L172.054 78.1206L170.308 79.0954ZM194.395 57.704H195.395V56.704H194.395V57.704ZM194.395 79.496H193.395V80.496H194.395V79.496ZM201.426 79.496H202.426V78.496H201.426V79.496ZM201.426 83V84H202.426V83H201.426ZM182.083 83H181.083V84H182.083V83ZM182.083 79.496V78.496H181.083V79.496H182.083ZM189.786 79.496V80.496H190.786V79.496H189.786ZM189.786 61.208H190.786V60.208H189.786V61.208ZM182.323 61.208H181.323V62.208H182.323V61.208ZM182.323 57.704V56.704H181.323V57.704H182.323ZM193.267 46.496L192.55 47.1934L192.559 47.2031L193.267 46.496ZM193.267 50.888L192.55 50.1904L192.55 50.1906L193.267 50.888ZM188.659 50.888L187.933 51.5757L187.942 51.5856L187.951 51.5951L188.659 50.888ZM188.659 46.496L187.951 45.7888L187.942 45.7986L188.659 46.496ZM193.395 57.704V79.496H195.395V57.704H193.395ZM194.395 80.496H201.426V78.496H194.395V80.496ZM200.426 79.496V83H202.426V79.496H200.426ZM201.426 82H182.083V84H201.426V82ZM183.082 83V79.496H181.083V83H183.082ZM182.083 80.496H189.786V78.496H182.083V80.496ZM190.786 79.496V61.208H188.786V79.496H190.786ZM189.786 60.208H182.323V62.208H189.786V60.208ZM183.323 61.208V57.704H181.323V61.208H183.323ZM182.323 58.704H194.395V56.704H182.323V58.704ZM190.963 46.608C191.7 46.608 192.193 46.8265 192.55 47.1934L193.983 45.7986C193.188 44.9815 192.145 44.608 190.963 44.608V46.608ZM192.559 47.2031C192.961 47.6049 193.155 48.0694 193.155 48.656H195.155C195.155 47.5466 194.756 46.5711 193.974 45.7889L192.559 47.2031ZM193.155 48.656C193.155 49.2861 192.953 49.7766 192.55 50.1904L193.983 51.5856C194.764 50.7834 195.155 49.7859 195.155 48.656H193.155ZM192.55 50.1906C192.193 50.5575 191.7 50.776 190.963 50.776V52.776C192.145 52.776 193.188 52.4025 193.983 51.5854L192.55 50.1906ZM190.963 50.776C190.247 50.776 189.745 50.5608 189.366 50.1809L187.951 51.5951C188.756 52.3992 189.79 52.776 190.963 52.776V50.776ZM189.384 50.2003C188.994 49.7881 188.795 49.2945 188.795 48.656H186.795C186.795 49.7775 187.171 50.7719 187.933 51.5757L189.384 50.2003ZM188.795 48.656C188.795 48.0607 188.986 47.5932 189.375 47.1934L187.942 45.7986C187.179 46.5828 186.795 47.5553 186.795 48.656H188.795ZM189.366 47.2031C189.745 46.8232 190.247 46.608 190.963 46.608V44.608C189.79 44.608 188.756 44.9848 187.951 45.7889L189.366 47.2031ZM213.648 71.912V70.912H212.595L212.649 71.9637L213.648 71.912ZM214.776 76.472L213.901 76.9566L213.904 76.9617L214.776 76.472ZM217.344 79.064L216.875 79.9475L216.886 79.953L217.344 79.064ZM224.328 79.304L223.986 78.3642L224.328 79.304ZM227.544 77.624L228.356 77.0402L227.788 76.2512L226.983 76.7957L227.544 77.624ZM229.632 80.528L230.255 81.3099L230.999 80.7167L230.444 79.9442L229.632 80.528ZM225.528 82.784L225.859 83.7277L225.867 83.7246L225.528 82.784ZM214.248 81.944L213.711 82.7877L213.72 82.7933L214.248 81.944ZM210.216 77.288L209.307 77.7057L209.31 77.7117L210.216 77.288ZM210.216 63.56L209.309 63.1391L209.306 63.1451L210.216 63.56ZM214.128 58.832L213.562 58.0073L214.128 58.832ZM225.744 58.616L225.203 59.4572L225.207 59.4597L225.744 58.616ZM229.392 62.936L228.481 63.3486L228.482 63.3516L229.392 62.936ZM230.64 70.856L229.641 70.816V70.816L230.64 70.856ZM230.568 71.912V72.912H231.468L231.562 72.0167L230.568 71.912ZM215.688 62.624L214.958 61.94L214.954 61.945L215.688 62.624ZM213.648 68.552L212.65 68.4863L212.58 69.552H213.648V68.552ZM226.224 68.552V69.552H227.243L227.224 68.5333L226.224 68.552ZM224.544 62.72L223.757 63.3379L223.766 63.3481L224.544 62.72ZM212.649 71.9637C212.75 73.918 213.149 75.5996 213.901 76.9566L215.65 75.9874C215.09 74.9764 214.737 73.618 214.646 71.8603L212.649 71.9637ZM213.904 76.9617C214.642 78.2761 215.63 79.287 216.875 79.9475L217.812 78.1805C216.946 77.721 216.221 77.0039 215.648 75.9823L213.904 76.9617ZM216.886 79.953C218.094 80.5755 219.421 80.88 220.848 80.88V78.88C219.714 78.88 218.705 78.6405 217.802 78.175L216.886 79.953ZM220.848 80.88C222.214 80.88 223.491 80.6723 224.669 80.2438L223.986 78.3642C223.052 78.7037 222.01 78.88 220.848 78.88V80.88ZM224.669 80.2438C225.814 79.8275 226.959 79.2268 228.104 78.4523L226.983 76.7957C225.952 77.4932 224.953 78.0125 223.986 78.3642L224.669 80.2438ZM226.732 78.2078L228.82 81.1118L230.444 79.9442L228.356 77.0402L226.732 78.2078ZM229.008 79.7461C227.917 80.6162 226.647 81.3171 225.188 81.8434L225.867 83.7246C227.513 83.1309 228.978 82.3278 230.255 81.3099L229.008 79.7461ZM225.197 81.8403C223.753 82.3466 222.256 82.6 220.704 82.6V84.6C222.479 84.6 224.199 84.3094 225.859 83.7277L225.197 81.8403ZM220.704 82.6C218.323 82.6 216.363 82.0814 214.776 81.0947L213.72 82.7933C215.685 84.0146 218.028 84.6 220.704 84.6V82.6ZM214.785 81.1003C213.193 80.0876 211.973 78.6851 211.122 76.8643L209.31 77.7117C210.314 79.8589 211.782 81.5604 213.711 82.7877L214.785 81.1003ZM211.124 76.8703C210.283 75.0411 209.848 72.8844 209.848 70.376H207.848C207.848 73.1156 208.324 75.5669 209.307 77.7057L211.124 76.8703ZM209.848 70.376C209.848 67.9528 210.282 65.8257 211.126 63.9749L209.306 63.1451C208.326 65.2943 207.848 67.7112 207.848 70.376H209.848ZM211.123 63.9809C211.982 62.1299 213.173 60.6989 214.693 59.6567L213.562 58.0073C211.722 59.2691 210.306 60.9901 209.309 63.1391L211.123 63.9809ZM214.693 59.6567C216.184 58.6343 217.981 58.104 220.128 58.104V56.104C217.635 56.104 215.431 56.7257 213.562 58.0073L214.693 59.6567ZM220.128 58.104C222.145 58.104 223.822 58.5692 225.203 59.4572L226.285 57.7748C224.53 56.6468 222.463 56.104 220.128 56.104V58.104ZM225.207 59.4597C226.612 60.3535 227.705 61.6362 228.481 63.3486L230.303 62.5234C229.382 60.4918 228.044 58.8944 226.281 57.7723L225.207 59.4597ZM228.482 63.3516C229.257 65.0469 229.664 67.122 229.664 69.608H231.664C231.664 66.91 231.223 64.5371 230.301 62.5204L228.482 63.3516ZM229.664 69.608C229.664 70.0277 229.656 70.4303 229.641 70.816L231.639 70.896C231.656 70.4817 231.664 70.0523 231.664 69.608H229.664ZM229.641 70.816C229.625 71.2006 229.602 71.5302 229.573 71.8073L231.562 72.0167C231.597 71.6858 231.622 71.3114 231.639 70.896L229.641 70.816ZM230.568 70.912H213.648V72.912H230.568V70.912ZM220.176 59.704C218.114 59.704 216.352 60.4536 214.958 61.9401L216.417 63.3079C217.424 62.2344 218.653 61.704 220.176 61.704V59.704ZM214.954 61.945C213.55 63.4624 212.833 65.7021 212.65 68.4863L214.646 68.6177C214.814 66.0579 215.458 64.3456 216.422 63.303L214.954 61.945ZM213.648 69.552H226.224V67.552H213.648V69.552ZM227.224 68.5333C227.173 65.8572 226.588 63.6603 225.322 62.0919L223.766 63.3481C224.644 64.4357 225.178 66.1268 225.224 68.5707L227.224 68.5333ZM225.33 62.1022C224.067 60.494 222.308 59.704 220.176 59.704V61.704C221.755 61.704 222.909 62.2579 223.757 63.3378L225.33 62.1022ZM257.741 47.36L257.524 48.3363L257.537 48.339L257.741 47.36ZM261.005 48.392L261.922 48.7907L262.32 47.8757L261.406 47.4758L261.005 48.392ZM259.565 51.704L259.169 52.6222L260.084 53.0172L260.482 52.1027L259.565 51.704ZM256.949 50.912L256.76 51.8939L256.763 51.8945L256.949 50.912ZM250.277 51.656L249.656 50.8723L250.277 51.656ZM249.005 59.6H248.005V60.6H249.005V59.6ZM257.549 59.6L258.539 59.7424L258.703 58.6H257.549V59.6ZM257.045 63.104V64.104H257.911L258.035 63.2464L257.045 63.104ZM249.005 63.104V62.104H248.005V63.104H249.005ZM249.005 83V84H250.005V83H249.005ZM244.421 83H243.421V84H244.421V83ZM244.421 63.104H245.421V62.104H244.421V63.104ZM238.493 63.104H237.493V64.104H238.493V63.104ZM238.493 59.6V58.6H237.493V59.6H238.493ZM244.421 59.6V60.6H245.421V59.6H244.421ZM245.621 50.648L244.801 50.0753L244.796 50.0829L245.621 50.648ZM248.957 47.936L248.547 47.0239L248.543 47.0256L248.957 47.936ZM253.853 47.976C255.235 47.976 256.457 48.099 257.524 48.3362L257.958 46.3838C256.721 46.109 255.351 45.976 253.853 45.976V47.976ZM257.537 48.339C258.625 48.5656 259.647 48.8893 260.604 49.3082L261.406 47.4758C260.315 46.9987 259.161 46.6344 257.945 46.381L257.537 48.339ZM260.088 47.9933L258.648 51.3053L260.482 52.1027L261.922 48.7907L260.088 47.9933ZM259.961 50.7858C259.074 50.403 258.131 50.1183 257.135 49.9295L256.763 51.8945C257.623 52.0577 258.424 52.301 259.169 52.6222L259.961 50.7858ZM257.138 49.9301C256.162 49.7417 255.162 49.648 254.141 49.648V51.648C255.04 51.648 255.912 51.7303 256.76 51.8939L257.138 49.9301ZM254.141 49.648C252.313 49.648 250.759 49.9983 249.656 50.8723L250.898 52.4397C251.491 51.9697 252.513 51.648 254.141 51.648V49.648ZM249.656 50.8723C248.503 51.7861 248.005 53.1498 248.005 54.752H250.005C250.005 53.5702 250.355 52.8699 250.898 52.4397L249.656 50.8723ZM248.005 54.752V59.6H250.005V54.752H248.005ZM249.005 60.6H257.549V58.6H249.005V60.6ZM256.559 59.4576L256.055 62.9616L258.035 63.2464L258.539 59.7424L256.559 59.4576ZM257.045 62.104H249.005V64.104H257.045V62.104ZM248.005 63.104V83H250.005V63.104H248.005ZM249.005 82H244.421V84H249.005V82ZM245.421 83V63.104H243.421V83H245.421ZM244.421 62.104H238.493V64.104H244.421V62.104ZM239.493 63.104V59.6H237.493V63.104H239.493ZM238.493 60.6H244.421V58.6H238.493V60.6ZM245.421 59.6V54.776H243.421V59.6H245.421ZM245.421 54.776C245.421 53.3688 245.773 52.1952 246.446 51.2131L244.796 50.0829C243.869 51.4368 243.421 53.0152 243.421 54.776H245.421ZM246.441 51.2207C247.145 50.2121 248.112 49.4188 249.371 48.8464L248.543 47.0256C246.986 47.7332 245.729 48.7479 244.801 50.0753L246.441 51.2207ZM249.367 48.8481C250.641 48.2755 252.129 47.976 253.853 47.976V45.976C251.897 45.976 250.121 46.3165 248.547 47.0239L249.367 48.8481ZM271.21 71.912V70.912H270.157L270.212 71.9637L271.21 71.912ZM272.338 76.472L271.464 76.9566L271.466 76.9617L272.338 76.472ZM274.906 79.064L274.438 79.9475L274.448 79.953L274.906 79.064ZM281.89 79.304L281.549 78.3642L281.89 79.304ZM285.106 77.624L285.918 77.0402L285.351 76.2512L284.546 76.7957L285.106 77.624ZM287.194 80.528L287.818 81.3099L288.562 80.7167L288.006 79.9442L287.194 80.528ZM283.09 82.784L283.421 83.7277L283.43 83.7246L283.09 82.784ZM271.81 81.944L271.273 82.7877L271.282 82.7933L271.81 81.944ZM267.778 77.288L266.87 77.7057L266.872 77.7117L267.778 77.288ZM267.778 63.56L266.871 63.1391L266.868 63.1451L267.778 63.56ZM271.69 58.832L271.125 58.0073L271.69 58.832ZM283.306 58.616L282.765 59.4572L282.769 59.4597L283.306 58.616ZM286.954 62.936L286.043 63.3486L286.045 63.3516L286.954 62.936ZM288.202 70.856L287.203 70.816V70.816L288.202 70.856ZM288.13 71.912V72.912H289.031L289.125 72.0167L288.13 71.912ZM273.25 62.624L272.521 61.94L272.516 61.945L273.25 62.624ZM271.21 68.552L270.212 68.4863L270.142 69.552H271.21V68.552ZM283.786 68.552V69.552H284.805L284.786 68.5333L283.786 68.552ZM282.106 62.72L281.32 63.3379L281.328 63.3481L282.106 62.72ZM270.212 71.9637C270.313 73.918 270.712 75.5996 271.464 76.9566L273.213 75.9874C272.653 74.9764 272.3 73.618 272.209 71.8603L270.212 71.9637ZM271.466 76.9617C272.205 78.2761 273.192 79.287 274.438 79.9475L275.375 78.1805C274.508 77.721 273.784 77.0039 273.21 75.9823L271.466 76.9617ZM274.448 79.953C275.657 80.5755 276.984 80.88 278.41 80.88V78.88C277.277 78.88 276.268 78.6405 275.364 78.175L274.448 79.953ZM278.41 80.88C279.776 80.88 281.054 80.6723 282.232 80.2438L281.549 78.3642C280.615 78.7037 279.572 78.88 278.41 78.88V80.88ZM282.232 80.2438C283.377 79.8275 284.522 79.2268 285.667 78.4523L284.546 76.7957C283.515 77.4932 282.516 78.0125 281.549 78.3642L282.232 80.2438ZM284.294 78.2078L286.382 81.1118L288.006 79.9442L285.918 77.0402L284.294 78.2078ZM286.571 79.7461C285.48 80.6162 284.209 81.3171 282.751 81.8434L283.43 83.7246C285.075 83.1309 286.541 82.3278 287.818 81.3099L286.571 79.7461ZM282.759 81.8403C281.315 82.3466 279.819 82.6 278.266 82.6V84.6C280.042 84.6 281.761 84.3094 283.421 83.7277L282.759 81.8403ZM278.266 82.6C275.886 82.6 273.925 82.0814 272.338 81.0947L271.282 82.7933C273.247 84.0146 275.591 84.6 278.266 84.6V82.6ZM272.347 81.1003C270.756 80.0876 269.536 78.6851 268.684 76.8643L266.872 77.7117C267.877 79.8589 269.345 81.5604 271.273 82.7877L272.347 81.1003ZM268.687 76.8703C267.846 75.0411 267.41 72.8844 267.41 70.376H265.41C265.41 73.1156 265.887 75.5669 266.87 77.7057L268.687 76.8703ZM267.41 70.376C267.41 67.9528 267.844 65.8257 268.688 63.9749L266.868 63.1451C265.888 65.2943 265.41 67.7112 265.41 70.376H267.41ZM268.685 63.9809C269.544 62.1299 270.736 60.6989 272.256 59.6567L271.125 58.0073C269.285 59.2691 267.868 60.9901 266.871 63.1391L268.685 63.9809ZM272.256 59.6567C273.747 58.6343 275.543 58.104 277.69 58.104V56.104C275.197 56.104 272.994 56.7257 271.125 58.0073L272.256 59.6567ZM277.69 58.104C279.707 58.104 281.384 58.5692 282.765 59.4572L283.847 57.7748C282.092 56.6468 280.025 56.104 277.69 56.104V58.104ZM282.769 59.4597C284.174 60.3535 285.268 61.6362 286.043 63.3486L287.865 62.5234C286.945 60.4918 285.606 58.8944 283.843 57.7723L282.769 59.4597ZM286.045 63.3516C286.819 65.0469 287.226 67.122 287.226 69.608H289.226C289.226 66.91 288.785 64.5371 287.864 62.5204L286.045 63.3516ZM287.226 69.608C287.226 70.0277 287.218 70.4303 287.203 70.816L289.201 70.896C289.218 70.4817 289.226 70.0523 289.226 69.608H287.226ZM287.203 70.816C287.188 71.2006 287.165 71.5302 287.136 71.8073L289.125 72.0167C289.16 71.6858 289.185 71.3114 289.201 70.896L287.203 70.816ZM288.13 70.912H271.21V72.912H288.13V70.912ZM277.738 59.704C275.677 59.704 273.914 60.4536 272.521 61.9401L273.98 63.3079C274.986 62.2344 276.216 61.704 277.738 61.704V59.704ZM272.516 61.945C271.112 63.4624 270.396 65.7021 270.212 68.4863L272.208 68.6177C272.377 66.0579 273.02 64.3456 273.984 63.303L272.516 61.945ZM271.21 69.552H283.786V67.552H271.21V69.552ZM284.786 68.5333C284.736 65.8572 284.15 63.6603 282.884 62.0919L281.328 63.3481C282.206 64.4357 282.741 66.1268 282.786 68.5707L284.786 68.5333ZM282.893 62.1022C281.629 60.494 279.871 59.704 277.738 59.704V61.704C279.318 61.704 280.471 62.2579 281.32 63.3378L282.893 62.1022ZM296.512 83H295.512V84H296.512V83ZM296.512 79.592V78.592H295.512V79.592H296.512ZM300.352 79.592V80.592H301.352V79.592H300.352ZM300.352 61.112H301.352V60.112H300.352V61.112ZM296.512 61.112H295.512V62.112H296.512V61.112ZM296.512 57.704V56.704H295.512V57.704H296.512ZM303.88 57.704L304.87 57.5637L304.748 56.704H303.88V57.704ZM304.719 63.632L303.729 63.7723L304.208 67.1501L305.629 64.0484L304.719 63.632ZM308.247 58.808L308.874 59.5871L308.875 59.5863L308.247 58.808ZM315.663 57.272L315.467 58.2526L315.473 58.2536L315.663 57.272ZM317.415 57.704L318.362 58.0253L318.696 57.0415L317.7 56.7455L317.415 57.704ZM316.048 61.736L315.757 62.693L316.684 62.9737L316.994 62.0573L316.048 61.736ZM308.223 63.368L307.512 62.665L308.223 63.368ZM304.96 69.44L304.003 69.1479L303.96 69.2907V69.44H304.96ZM304.96 79.592H303.96V80.592H304.96V79.592ZM310.096 79.592H311.096V78.592H310.096V79.592ZM310.096 83V84H311.096V83H310.096ZM313.143 66.584H312.143V67.584H313.143V66.584ZM313.143 60.776L312.158 60.6066L312.143 60.6907V60.776H313.143ZM313.672 57.704V56.704H312.829L312.686 57.5346L313.672 57.704ZM317.415 57.704L318.412 57.7848L318.5 56.704H317.415V57.704ZM316.695 66.584V67.584H317.618L317.692 66.6648L316.695 66.584ZM297.512 83V79.592H295.512V83H297.512ZM296.512 80.592H300.352V78.592H296.512V80.592ZM301.352 79.592V61.112H299.352V79.592H301.352ZM300.352 60.112H296.512V62.112H300.352V60.112ZM297.512 61.112V57.704H295.512V61.112H297.512ZM296.512 58.704H303.88V56.704H296.512V58.704ZM302.889 57.8443L303.729 63.7723L305.71 63.4917L304.87 57.5637L302.889 57.8443ZM305.629 64.0484C306.542 62.054 307.633 60.5857 308.874 59.5871L307.621 58.0289C306.078 59.2703 304.817 61.018 303.81 63.2156L305.629 64.0484ZM308.875 59.5863C310.066 58.6253 311.652 58.104 313.719 58.104V56.104C311.307 56.104 309.245 56.7187 307.62 58.0297L308.875 59.5863ZM313.719 58.104C314.407 58.104 314.987 58.1566 315.467 58.2526L315.86 56.2914C315.22 56.1634 314.504 56.104 313.719 56.104V58.104ZM315.473 58.2536C316.015 58.3591 316.568 58.4953 317.131 58.6625L317.7 56.7455C317.079 56.5607 316.464 56.4089 315.854 56.2904L315.473 58.2536ZM316.469 57.3827L315.101 61.4147L316.994 62.0573L318.362 58.0253L316.469 57.3827ZM316.338 60.779C315.774 60.6083 315.245 60.4836 314.754 60.4108L314.461 62.3892C314.834 62.4444 315.265 62.5437 315.757 62.693L316.338 60.779ZM314.754 60.4108C314.262 60.3379 313.716 60.304 313.12 60.304V62.304C313.643 62.304 314.089 62.3341 314.461 62.3892L314.754 60.4108ZM313.12 60.304C310.943 60.304 309.057 61.1024 307.512 62.665L308.935 64.071C310.11 62.8816 311.488 62.304 313.12 62.304V60.304ZM307.512 62.665C305.999 64.1959 304.847 66.3852 304.003 69.1479L305.916 69.7321C306.704 67.1508 307.728 65.2921 308.935 64.071L307.512 62.665ZM303.96 69.44V79.592H305.96V69.44H303.96ZM304.96 80.592H310.096V78.592H304.96V80.592ZM309.096 79.592V83H311.096V79.592H309.096ZM310.096 82H296.512V84H310.096V82ZM314.143 66.584V60.776H312.143V66.584H314.143ZM314.129 60.9454L314.657 57.8734L312.686 57.5346L312.158 60.6066L314.129 60.9454ZM313.672 58.704H317.415V56.704H313.672V58.704ZM316.419 57.6232L315.699 66.5032L317.692 66.6648L318.412 57.7848L316.419 57.6232ZM316.695 65.584H313.143V67.584H316.695V65.584Z" fill="#1C1C1C" mask="url(#path-7-outside-4_0_1)"/>
</g>
<defs>
<filter id="filter0_d_0_1" x="116.855" y="3.92801" width="146.606" height="43.7412" filterUnits="userSpaceOnUse" color-interpolation-filters="sRGB">
<feFlood flood-opacity="0" result="BackgroundImageFix"/>
<feColorMatrix in="SourceAlpha" type="matrix" values="0 0 0 0 0 0 0 0 0 0 0 0 0 0 0 0 0 0 127 0" result="hardAlpha"/>
<feOffset dy="4"/>
<feGaussianBlur stdDeviation="2"/>
<feComposite in2="hardAlpha" operator="out"/>
<feColorMatrix type="matrix" values="0 0 0 0 0 0 0 0 0 0 0 0 0 0 0 0 0 0 0.25 0"/>
<feBlend mode="normal" in2="BackgroundImageFix" result="effect1_dropShadow_0_1"/>
<feBlend mode="normal" in="SourceGraphic" in2="effect1_dropShadow_0_1" result="shape"/>
</filter>
<filter id="filter1_d_0_1" x="115.463" y="44.608" width="207.234" height="47.992" filterUnits="userSpaceOnUse" color-interpolation-filters="sRGB">
<feFlood flood-opacity="0" result="BackgroundImageFix"/>
<feColorMatrix in="SourceAlpha" type="matrix" values="0 0 0 0 0 0 0 0 0 0 0 0 0 0 0 0 0 0 127 0" result="hardAlpha"/>
<feOffset dy="4"/>
<feGaussianBlur stdDeviation="2"/>
<feComposite in2="hardAlpha" operator="out"/>
<feColorMatrix type="matrix" values="0 0 0 0 0 0 0 0 0 0 0 0 0 0 0 0 0 0 0.25 0"/>
<feBlend mode="normal" in2="BackgroundImageFix" result="effect1_dropShadow_0_1"/>
<feBlend mode="normal" in="SourceGraphic" in2="effect1_dropShadow_0_1" result="shape"/>
</filter>
</defs>
</svg>
