<svg width="116" height="96" viewBox="0 0 116 96" fill="none" xmlns="http://www.w3.org/2000/svg">
<mask id="path-1-outside-1_0_1" maskUnits="userSpaceOnUse" x="0" y="2" width="66" height="93" fill="black">
<rect fill="white" y="2" width="66" height="93"/>
<path d="M64.456 3.296V60.064C64.456 65.2267 63.6667 69.8987 62.088 74.08C60.5093 78.2613 58.184 81.824 55.112 84.768C52.0827 87.712 48.3493 89.9733 43.912 91.552C39.5173 93.1307 34.4827 93.92 28.808 93.92C23.0907 93.92 18.1413 93.1947 13.96 91.744C9.82133 90.2507 5.832 88.2027 1.992 85.6L9.992 72.672C13.0213 74.7627 15.8587 76.2347 18.504 77.088C21.1493 77.8987 24.1573 78.304 27.528 78.304C32.0933 78.304 35.8907 76.8533 38.92 73.952C41.992 71.008 43.528 66.464 43.528 60.32V18.656H16.264V3.296H64.456Z"/>
</mask>
<path d="M64.456 3.296V60.064C64.456 65.2267 63.6667 69.8987 62.088 74.08C60.5093 78.2613 58.184 81.824 55.112 84.768C52.0827 87.712 48.3493 89.9733 43.912 91.552C39.5173 93.1307 34.4827 93.92 28.808 93.92C23.0907 93.92 18.1413 93.1947 13.96 91.744C9.82133 90.2507 5.832 88.2027 1.992 85.6L9.992 72.672C13.0213 74.7627 15.8587 76.2347 18.504 77.088C21.1493 77.8987 24.1573 78.304 27.528 78.304C32.0933 78.304 35.8907 76.8533 38.92 73.952C41.992 71.008 43.528 66.464 43.528 60.32V18.656H16.264V3.296H64.456Z" fill="#3DCFB6"/>
<path d="M64.456 3.296H65.456V2.296H64.456V3.296ZM62.088 74.08L63.0235 74.4332L62.088 74.08ZM55.112 84.768L54.4201 84.046L54.4151 84.0509L55.112 84.768ZM43.912 91.552L43.5768 90.6098L43.5739 90.6109L43.912 91.552ZM13.96 91.744L13.6206 92.6847L13.6322 92.6888L13.96 91.744ZM1.992 85.6L1.14165 85.0738L0.636842 85.8895L1.43095 86.4278L1.992 85.6ZM9.992 72.672L10.56 71.849L9.69481 71.2519L9.14165 72.1458L9.992 72.672ZM18.504 77.088L18.197 78.0397L18.204 78.042L18.211 78.0441L18.504 77.088ZM38.92 73.952L39.6117 74.6742L39.6119 74.674L38.92 73.952ZM43.528 18.656H44.528V17.656H43.528V18.656ZM16.264 18.656H15.264V19.656H16.264V18.656ZM16.264 3.296V2.296H15.264V3.296H16.264ZM63.456 3.296V60.064H65.456V3.296H63.456ZM63.456 60.064C63.456 65.1244 62.6824 69.6744 61.1525 73.7268L63.0235 74.4332C64.6509 70.1229 65.456 65.3289 65.456 60.064H63.456ZM61.1525 73.7268C59.6238 77.7758 57.379 81.2104 54.4201 84.046L55.8039 85.49C58.989 82.4376 61.3949 78.7469 63.0235 74.4332L61.1525 73.7268ZM54.4151 84.0509C51.5 86.8838 47.8945 89.0738 43.5768 90.6098L44.2472 92.4941C48.8042 90.8729 52.6653 88.5402 55.8089 85.4851L54.4151 84.0509ZM43.5739 90.6109C39.3082 92.1432 34.3914 92.92 28.808 92.92V94.92C34.5739 94.92 39.7264 94.1181 44.2501 92.4931L43.5739 90.6109ZM28.808 92.92C23.1714 92.92 18.338 92.2044 14.2878 90.7992L13.6322 92.6888C17.9446 94.1849 23.0099 94.92 28.808 94.92V92.92ZM14.2994 90.8034C10.2432 89.3398 6.32789 87.3307 2.55305 84.7722L1.43095 86.4278C5.33611 89.0746 9.3995 91.1616 13.6206 92.6846L14.2994 90.8034ZM2.84235 86.1262L10.8424 73.1982L9.14165 72.1458L1.14165 85.0738L2.84235 86.1262ZM9.424 73.495C12.5093 75.6243 15.4344 77.1485 18.197 78.0397L18.811 76.1363C16.283 75.3208 13.5334 73.901 10.56 71.849L9.424 73.495ZM18.211 78.0441C20.9693 78.8894 24.0789 79.304 27.528 79.304V77.304C24.2358 77.304 21.3293 76.9079 18.797 76.1319L18.211 78.0441ZM27.528 79.304C32.3261 79.304 36.3789 77.7703 39.6117 74.6742L38.2283 73.2298C35.4024 75.9363 31.8605 77.304 27.528 77.304V79.304ZM39.6119 74.674C42.9543 71.4709 44.528 66.6144 44.528 60.32H42.528C42.528 66.3136 41.0297 70.5451 38.2281 73.23L39.6119 74.674ZM44.528 60.32V18.656H42.528V60.32H44.528ZM43.528 17.656H16.264V19.656H43.528V17.656ZM17.264 18.656V3.296H15.264V18.656H17.264ZM16.264 4.296H64.456V2.296H16.264V4.296Z" fill="#3DCFB6" mask="url(#path-1-outside-1_0_1)"/>
<mask id="path-3-outside-2_0_1" maskUnits="userSpaceOnUse" x="42" y="0" width="74" height="96" fill="black">
<rect fill="white" x="42" width="74" height="96"/>
<path d="M114.704 66.08C114.704 71.584 113.253 76.448 110.352 80.672C107.493 84.896 103.376 88.2027 98 90.592C92.624 92.9813 86.16 94.176 78.608 94.176C70.2453 94.176 63.2267 92.96 57.552 90.528C51.92 88.0533 47.248 85.0027 43.536 81.376L54.16 69.6C57.4453 72.4587 61.072 74.6773 65.04 76.256C69.008 77.792 73.36 78.56 78.096 78.56C81.04 78.56 83.6213 78.1333 85.84 77.28C88.0587 76.4267 89.7867 75.1893 91.024 73.568C92.2613 71.9467 92.88 69.984 92.88 67.68C92.88 65.504 92.3893 63.6693 91.408 62.176C90.4267 60.6827 88.7627 59.3387 86.416 58.144C84.112 56.9493 80.8907 55.7333 76.752 54.496C69.84 52.3627 64.272 50.016 60.048 47.456C55.8667 44.896 52.816 41.9307 50.896 38.56C49.0187 35.1893 48.08 31.264 48.08 26.784C48.08 21.3653 49.5733 16.736 52.56 12.896C55.5893 9.05599 59.6427 6.13333 64.72 4.128C69.7973 2.07999 75.3867 1.05599 81.488 1.05599C88.3573 1.05599 94.416 2.05866 99.664 4.064C104.912 6.02666 109.456 8.84266 113.296 12.512L103.376 23.904C100.389 21.3867 97.168 19.5307 93.712 18.336C90.256 17.0987 86.736 16.48 83.152 16.48C80.5067 16.48 78.1813 16.8213 76.176 17.504C74.1707 18.144 72.6133 19.104 71.504 20.384C70.3947 21.664 69.84 23.264 69.84 25.184C69.84 27.0613 70.3733 28.64 71.44 29.92C72.5067 31.2 74.3627 32.416 77.008 33.568C79.6533 34.6773 83.3227 35.9787 88.016 37.472C93.6053 39.1787 98.384 41.2267 102.352 43.616C106.363 45.9627 109.413 48.928 111.504 52.512C113.637 56.096 114.704 60.6187 114.704 66.08Z"/>
</mask>
<path d="M114.704 66.08C114.704 71.584 113.253 76.448 110.352 80.672C107.493 84.896 103.376 88.2027 98 90.592C92.624 92.9813 86.16 94.176 78.608 94.176C70.2453 94.176 63.2267 92.96 57.552 90.528C51.92 88.0533 47.248 85.0027 43.536 81.376L54.16 69.6C57.4453 72.4587 61.072 74.6773 65.04 76.256C69.008 77.792 73.36 78.56 78.096 78.56C81.04 78.56 83.6213 78.1333 85.84 77.28C88.0587 76.4267 89.7867 75.1893 91.024 73.568C92.2613 71.9467 92.88 69.984 92.88 67.68C92.88 65.504 92.3893 63.6693 91.408 62.176C90.4267 60.6827 88.7627 59.3387 86.416 58.144C84.112 56.9493 80.8907 55.7333 76.752 54.496C69.84 52.3627 64.272 50.016 60.048 47.456C55.8667 44.896 52.816 41.9307 50.896 38.56C49.0187 35.1893 48.08 31.264 48.08 26.784C48.08 21.3653 49.5733 16.736 52.56 12.896C55.5893 9.05599 59.6427 6.13333 64.72 4.128C69.7973 2.07999 75.3867 1.05599 81.488 1.05599C88.3573 1.05599 94.416 2.05866 99.664 4.064C104.912 6.02666 109.456 8.84266 113.296 12.512L103.376 23.904C100.389 21.3867 97.168 19.5307 93.712 18.336C90.256 17.0987 86.736 16.48 83.152 16.48C80.5067 16.48 78.1813 16.8213 76.176 17.504C74.1707 18.144 72.6133 19.104 71.504 20.384C70.3947 21.664 69.84 23.264 69.84 25.184C69.84 27.0613 70.3733 28.64 71.44 29.92C72.5067 31.2 74.3627 32.416 77.008 33.568C79.6533 34.6773 83.3227 35.9787 88.016 37.472C93.6053 39.1787 98.384 41.2267 102.352 43.616C106.363 45.9627 109.413 48.928 111.504 52.512C113.637 56.096 114.704 60.6187 114.704 66.08Z" fill="#3DCFB6"/>
<path d="M110.352 80.672L109.528 80.1058L109.524 80.1115L110.352 80.672ZM98 90.592L98.4061 91.5058L98 90.592ZM57.552 90.528L57.1497 91.4436L57.1581 91.4471L57.552 90.528ZM43.536 81.376L42.7935 80.7061L42.1498 81.4197L42.8372 82.0913L43.536 81.376ZM54.16 69.6L54.8164 68.8456L54.0754 68.2009L53.4175 68.9301L54.16 69.6ZM65.04 76.256L64.6703 77.1852L64.679 77.1886L65.04 76.256ZM85.84 77.28L86.199 78.2133L85.84 77.28ZM91.024 73.568L90.229 72.9613L91.024 73.568ZM91.408 62.176L90.5723 62.7252L91.408 62.176ZM86.416 58.144L85.9557 59.0318L85.9623 59.0352L86.416 58.144ZM76.752 54.496L76.4571 55.4516L76.4656 55.4541L76.752 54.496ZM60.048 47.456L59.5258 48.3089L59.5297 48.3112L60.048 47.456ZM50.896 38.56L50.0223 39.0466L50.0271 39.055L50.896 38.56ZM52.56 12.896L51.7749 12.2766L51.7706 12.2821L52.56 12.896ZM64.72 4.128L65.0874 5.05811L65.0941 5.0554L64.72 4.128ZM99.664 4.064L99.307 4.99815L99.3137 5.00064L99.664 4.064ZM113.296 12.512L114.05 13.1687L114.677 12.4486L113.987 11.789L113.296 12.512ZM103.376 23.904L102.732 24.6686L103.484 25.3028L104.13 24.5607L103.376 23.904ZM93.712 18.336L93.3749 19.2775L93.3853 19.2811L93.712 18.336ZM76.176 17.504L76.48 18.4567L76.4892 18.4537L76.4983 18.4506L76.176 17.504ZM71.44 29.92L70.6718 30.5602L71.44 29.92ZM77.008 33.568L76.6087 34.4849L76.6213 34.4902L77.008 33.568ZM88.016 37.472L87.7128 38.425L87.724 38.4284L88.016 37.472ZM102.352 43.616L101.836 44.4727L101.847 44.4791L102.352 43.616ZM111.504 52.512L110.64 53.0159L110.645 53.0235L111.504 52.512ZM113.704 66.08C113.704 71.3976 112.306 76.061 109.528 80.1058L111.176 81.2382C114.201 76.835 115.704 71.7704 115.704 66.08H113.704ZM109.524 80.1115C106.785 84.158 102.826 87.3529 97.5939 89.6782L98.4061 91.5058C103.926 89.0524 108.201 85.634 111.18 81.2325L109.524 80.1115ZM97.5939 89.6782C92.3765 91.997 86.0582 93.176 78.608 93.176V95.176C86.2618 95.176 92.8715 93.9657 98.4061 91.5058L97.5939 89.6782ZM78.608 93.176C70.3355 93.176 63.4604 91.9722 57.9459 89.6089L57.1581 91.4471C62.993 93.9478 70.1551 95.176 78.608 95.176V93.176ZM57.9543 89.6125C52.4124 87.1774 47.8465 84.1894 44.2348 80.6607L42.8372 82.0913C46.6495 85.816 51.4276 88.9292 57.1497 91.4435L57.9543 89.6125ZM44.2785 82.0459L54.9025 70.2699L53.4175 68.9301L42.7935 80.7061L44.2785 82.0459ZM53.5036 70.3544C56.8723 73.2856 60.5955 75.564 64.6703 77.1852L65.4097 75.3268C61.5485 73.7907 58.0184 71.6318 54.8164 68.8456L53.5036 70.3544ZM64.679 77.1886C68.7744 78.7739 73.2505 79.56 78.096 79.56V77.56C73.4695 77.56 69.2416 76.8101 65.401 75.3234L64.679 77.1886ZM78.096 79.56C81.1345 79.56 83.8421 79.1199 86.199 78.2133L85.481 76.3467C83.4006 77.1468 80.9455 77.56 78.096 77.56V79.56ZM86.199 78.2133C88.5614 77.3047 90.4518 75.9661 91.819 74.1747L90.229 72.9613C89.1215 74.4126 87.556 75.5486 85.481 76.3467L86.199 78.2133ZM91.819 74.1747C93.2063 72.3567 93.88 70.1734 93.88 67.68H91.88C91.88 69.7946 91.3163 71.5366 90.229 72.9613L91.819 74.1747ZM93.88 67.68C93.88 65.3517 93.3536 63.3157 92.2437 61.6268L90.5723 62.7252C91.4251 64.0229 91.88 65.6563 91.88 67.68H93.88ZM92.2437 61.6268C91.1322 59.9354 89.3029 58.4916 86.8697 57.2528L85.9623 59.0352C88.2224 60.1857 89.7212 61.43 90.5723 62.7252L92.2437 61.6268ZM86.8763 57.2562C84.4923 56.0201 81.2033 54.7831 77.0384 53.5379L76.4656 55.4541C80.5781 56.6836 83.7318 57.8786 85.9557 59.0318L86.8763 57.2562ZM77.0469 53.5405C70.1806 51.4212 64.696 49.1037 60.5663 46.6008L59.5297 48.3112C63.848 50.9283 69.4995 53.3041 76.4571 55.4515L77.0469 53.5405ZM60.5702 46.6031C56.4955 44.1085 53.5821 41.2553 51.7649 38.065L50.0271 39.055C52.0499 42.606 55.2378 45.6835 59.5258 48.3088L60.5702 46.6031ZM51.7696 38.0734C49.9877 34.874 49.08 31.1214 49.08 26.784H47.08C47.08 31.4066 48.0497 35.5047 50.0224 39.0466L51.7696 38.0734ZM49.08 26.784C49.08 21.561 50.5148 17.1544 53.3494 13.5099L51.7706 12.2821C48.6319 16.3176 47.08 21.1697 47.08 26.784H49.08ZM53.3451 13.5154C56.2528 9.8296 60.1547 7.00625 65.0873 5.05808L64.3527 3.19791C59.1306 5.2604 54.9259 8.28239 51.7749 12.2766L53.3451 13.5154ZM65.0941 5.0554C70.0397 3.06054 75.5002 2.05599 81.488 2.05599V0.0559921C75.2731 0.0559921 69.555 1.09945 64.3459 3.2006L65.0941 5.0554ZM81.488 2.05599C88.2617 2.05599 94.1953 3.04483 99.3071 4.99812L100.021 3.12987C94.6367 1.07249 88.453 0.0559921 81.488 0.0559921V2.05599ZM99.3137 5.00064C104.442 6.91853 108.868 9.66428 112.605 13.235L113.987 11.789C110.044 8.02105 105.382 5.1348 100.014 3.12735L99.3137 5.00064ZM112.542 11.8553L102.622 23.2473L104.13 24.5607L114.05 13.1687L112.542 11.8553ZM104.02 23.1394C100.946 20.5483 97.6185 18.6283 94.0387 17.3909L93.3853 19.2811C96.7175 20.433 99.8323 22.225 102.732 24.6686L104.02 23.1394ZM94.0491 17.3945C90.4876 16.1194 86.8537 15.48 83.152 15.48V17.48C86.6183 17.48 90.0244 18.0779 93.3749 19.2775L94.0491 17.3945ZM83.152 15.48C80.4232 15.48 77.985 15.8318 75.8537 16.5573L76.4983 18.4506C78.3777 17.8108 80.5902 17.48 83.152 17.48V15.48ZM75.872 16.5513C73.7339 17.2337 72.0041 18.2801 70.7483 19.7291L72.2597 21.0389C73.2226 19.9279 74.6075 19.0543 76.48 18.4567L75.872 16.5513ZM70.7483 19.7291C69.4603 21.2152 68.84 23.0577 68.84 25.184H70.84C70.84 23.4703 71.329 22.1128 72.2597 21.0389L70.7483 19.7291ZM68.84 25.184C68.84 27.2638 69.4364 29.0777 70.6718 30.5602L72.2082 29.2798C71.3103 28.2023 70.84 26.8589 70.84 25.184H68.84ZM70.6718 30.5602C71.8863 32.0176 73.9108 33.3099 76.6087 34.4848L77.4073 32.6512C74.8146 31.5221 73.127 30.3824 72.2082 29.2798L70.6718 30.5602ZM76.6213 34.4902C79.3065 35.6163 83.0081 36.928 87.7128 38.4249L88.3192 36.5191C83.6372 35.0294 80.0001 33.7384 77.3947 32.6458L76.6213 34.4902ZM87.724 38.4284C93.2543 40.1171 97.9539 42.135 101.836 44.4727L102.868 42.7593C98.8141 40.3184 93.9564 38.2403 88.308 36.5156L87.724 38.4284ZM101.847 44.4791C105.727 46.7495 108.646 49.5977 110.64 53.0159L112.368 52.0081C110.18 48.2583 106.998 45.1758 102.857 42.7529L101.847 44.4791ZM110.645 53.0235C112.662 56.4119 113.704 60.7444 113.704 66.08H115.704C115.704 60.493 114.613 55.7801 112.363 52.0005L110.645 53.0235Z" fill="#3DCFB6" mask="url(#path-3-outside-2_0_1)"/>
</svg>
